<?xml version="1.0" standalone="no"?>
<!DOCTYPE svg PUBLIC "-//W3C//DTD SVG 20010904//EN"
 "http://www.w3.org/TR/2001/REC-SVG-20010904/DTD/svg10.dtd">
<svg version="1.0" xmlns="http://www.w3.org/2000/svg"
 width="840.000000pt" height="606.000000pt" viewBox="0 0 840.000000 606.000000"
 preserveAspectRatio="xMidYMid meet">
<metadata>
Created by potrace 1.16, written by Peter Selinger 2001-2019
</metadata>
<g transform="translate(0.000000,606.000000) scale(0.100000,-0.100000)"
fill="#000000" stroke="none">
<path d="M3630 5639 c-271 -28 -569 -134 -790 -282 -440 -295 -740 -786 -801
-1309 l-12 -104 -84 -39 c-424 -194 -705 -608 -738 -1085 -18 -248 56 -531
196 -756 66 -105 217 -267 322 -346 85 -63 244 -147 332 -174 51 -16 57 -17
90 -1 19 9 41 27 50 41 23 35 22 102 -2 135 -21 28 -23 29 -155 90 -117 54
-198 110 -289 200 -173 173 -273 385 -299 631 -18 185 13 365 95 539 129 272
352 460 653 551 l72 22 0 101 c0 397 174 799 475 1101 215 216 480 359 785
423 134 28 431 26 568 -5 145 -33 240 -65 367 -127 322 -157 578 -424 730
-761 25 -55 48 -99 52 -99 5 0 62 7 127 14 250 29 536 0 726 -72 229 -86 440
-243 586 -435 92 -122 186 -317 226 -467 31 -116 32 -127 32 -330 1 -233 -6
-287 -60 -454 -105 -321 -332 -592 -645 -769 -83 -47 -107 -106 -72 -179 22
-48 88 -78 138 -64 55 15 189 99 302 190 471 377 686 1007 549 1612 -136 600
-637 1075 -1246 1180 -75 13 -187 22 -320 26 l-206 6 -42 81 c-96 182 -287
408 -457 542 -274 213 -594 341 -941 374 -123 11 -191 11 -314 -1z"/>
</g>
</svg>
