<svg xmlns="http://www.w3.org/2000/svg"  viewBox="0 0 24 24" width="48px" height="48px"><path d="M 14.054688 0.001953125 C 13.918438 -0.005546875 13.780391 0.015546875 13.650391 0.060546875 L 6.0507812 2.9101562 L 6.4902344 3.1308594 L 8.4902344 4.1308594 L 10.039062 4.9101562 L 15.339844 2.7890625 L 17.220703 2.0292969 L 17.820312 1.7890625 L 14.449219 0.109375 C 14.324219 0.044375 14.190937 0.009453125 14.054688 0.001953125 z M 19 3.3203125 L 19 5.609375 L 19.160156 5.5605469 L 20.740234 5.0292969 L 22.089844 4.5800781 L 19.189453 3.4003906 L 19 3.3203125 z M 17 4.2792969 L 11 6.6796875 L 11 10 C 11 10.07 10.990469 10.139219 10.980469 10.199219 C 10.970469 10.259219 10.949922 10.320859 10.919922 10.380859 C 10.819922 10.620859 10.630625 10.819922 10.390625 10.919922 L 10.380859 10.929688 L 7 12.300781 L 7 19.050781 L 9 18.300781 L 9 14 C 9 13.58 9.2603906 13.210547 9.6503906 13.060547 L 17 10.300781 L 17 4.2792969 z M 5 4.6191406 L 5 7.3105469 L 2 8.4296875 L 2.6503906 8.7695312 L 4.390625 9.6699219 L 6.0507812 10.529297 L 9 9.3203125 L 9 6.6191406 L 5 4.6191406 z M 23 6.390625 L 21 7.0605469 L 19 7.7207031 L 19 11 C 19 11.08 18.990703 11.160469 18.970703 11.230469 C 18.950703 11.300469 18.920625 11.379453 18.890625 11.439453 C 18.850625 11.529453 18.800469 11.609688 18.730469 11.679688 C 18.700469 11.709687 18.659141 11.749297 18.619141 11.779297 C 18.549141 11.839297 18.470625 11.889922 18.390625 11.919922 C 18.380625 11.929922 18.359609 11.929453 18.349609 11.939453 L 11 14.689453 L 11 24 L 18.349609 20.939453 C 18.739609 20.789453 19 20.42 19 20 L 19 16.199219 L 22.349609 14.939453 C 22.739609 14.789453 23 14.42 23 14 L 23 6.390625 z M 13 7 C 13.55 7 14 7.45 14 8 C 14 8.55 13.55 9 13 9 C 12.45 9 12 8.55 12 8 C 12 7.45 12.45 7 13 7 z M 1 10.160156 L 1 17.5 L 1 18 C 1 18.38 1.2107813 18.720625 1.5507812 18.890625 L 4.0703125 20.150391 L 4.2695312 20.080078 L 5 19.800781 L 5 12.230469 L 3 11.199219 L 1.109375 10.220703 L 1 10.160156 z M 16 18 C 16.55 18 17 18.45 17 19 C 17 19.12 16.979453 19.230078 16.939453 19.330078 C 16.809453 19.720078 16.43 20 16 20 C 15.82 20 15.649766 19.949141 15.509766 19.869141 C 15.209766 19.699141 15 19.37 15 19 C 15 18.45 15.45 18 16 18 z M 9 20.449219 L 7.9296875 20.849609 L 6.1191406 21.529297 L 5.4101562 21.789062 C 5.4501563 21.839062 5.5007813 21.870625 5.5507812 21.890625 L 9.0214844 24 L 9 20.449219 z"/></svg>