<svg id="svg" version="1.1" xmlns="http://www.w3.org/2000/svg" xmlns:xlink="http://www.w3.org/1999/xlink" width="400" height="288.5714285714286" viewBox="0, 0, 400,288.5714285714286"><g id="svgg"><path id="path0" d="M198.846 90.372 C 197.973 90.860,195.180 92.463,192.641 93.935 C 190.101 95.407,187.504 96.901,186.869 97.255 C 186.234 97.609,183.766 99.034,181.385 100.421 C 179.004 101.809,176.407 103.304,175.613 103.743 C 174.820 104.182,171.248 106.230,167.677 108.294 C 159.639 112.939,151.656 117.533,144.300 121.749 C 141.205 123.523,138.478 125.103,138.240 125.260 C 138.001 125.416,137.627 125.630,137.407 125.733 C 137.187 125.837,134.477 127.394,131.385 129.195 C 128.293 130.995,125.710 132.468,125.646 132.468 C 125.581 132.468,125.012 132.809,124.381 133.227 L 123.232 133.987 123.232 178.926 C 123.232 221.364,123.260 223.889,123.737 224.305 C 124.015 224.547,124.827 225.066,125.541 225.458 C 126.725 226.108,130.845 228.515,131.890 229.167 C 132.804 229.737,148.507 238.863,148.918 239.062 C 149.396 239.294,149.534 239.376,152.754 241.342 C 153.988 242.096,155.057 242.713,155.127 242.713 C 155.198 242.713,155.940 243.145,156.777 243.674 C 157.613 244.203,158.492 244.723,158.730 244.831 C 158.968 244.938,159.618 245.300,160.173 245.635 C 162.346 246.944,180.313 257.412,181.674 258.162 C 182.468 258.599,183.442 259.180,183.838 259.452 C 184.235 259.724,185.144 260.270,185.859 260.665 C 187.057 261.327,189.200 262.564,191.440 263.886 C 196.289 266.747,199.138 268.397,199.891 268.781 C 200.882 269.286,201.207 269.119,215.391 260.791 C 219.848 258.174,237.286 247.994,238.004 247.590 C 239.089 246.979,240.916 245.892,241.714 245.381 C 242.025 245.181,242.475 244.932,242.713 244.826 C 242.951 244.721,243.830 244.203,244.666 243.674 C 245.503 243.145,246.248 242.713,246.322 242.713 C 246.396 242.713,247.075 242.341,247.831 241.886 C 248.588 241.432,252.323 239.238,256.133 237.011 C 259.942 234.783,263.514 232.689,264.069 232.356 C 264.625 232.023,265.274 231.660,265.512 231.550 C 265.911 231.364,268.060 230.081,269.415 229.219 C 269.729 229.020,270.180 228.769,270.418 228.662 C 271.792 228.044,277.280 224.669,277.706 224.181 C 278.182 223.634,278.211 221.053,278.211 178.760 L 278.211 133.918 277.117 133.265 C 276.516 132.906,275.769 132.449,275.458 132.249 C 275.147 132.050,274.697 131.798,274.459 131.690 C 274.221 131.581,273.350 131.063,272.525 130.537 C 271.699 130.012,270.958 129.582,270.879 129.582 C 270.800 129.582,268.961 128.543,266.793 127.273 C 264.625 126.003,262.803 124.964,262.744 124.964 C 262.686 124.964,261.927 124.509,261.058 123.954 C 260.190 123.398,259.425 122.944,259.358 122.944 C 259.291 122.944,256.980 121.632,254.221 120.028 C 251.463 118.424,248.687 116.821,248.052 116.465 C 246.906 115.823,244.120 114.211,243.290 113.710 C 242.098 112.991,232.813 107.617,231.444 106.854 C 230.578 106.371,227.613 104.664,224.855 103.061 C 222.097 101.457,219.802 100.144,219.756 100.144 C 219.710 100.144,218.655 99.542,217.412 98.807 C 214.920 97.333,206.376 92.398,204.329 91.251 C 203.615 90.850,202.641 90.286,202.165 89.996 C 201.014 89.295,200.709 89.330,198.846 90.372 M202.886 103.697 C 203.759 104.221,204.668 104.746,204.906 104.862 C 205.144 104.978,205.599 105.232,205.916 105.426 C 206.234 105.621,207.383 106.297,208.470 106.930 C 209.557 107.563,210.856 108.322,211.356 108.616 C 215.586 111.106,228.407 118.563,229.437 119.133 C 230.152 119.528,231.081 120.093,231.502 120.388 C 231.923 120.682,232.334 120.924,232.415 120.924 C 232.496 120.924,237.655 123.911,243.880 127.561 C 250.104 131.212,255.246 134.199,255.307 134.199 C 255.368 134.199,256.454 134.848,257.720 135.642 C 258.986 136.436,260.101 137.085,260.198 137.085 C 260.595 137.085,262.049 138.306,262.049 138.639 C 262.049 139.020,260.041 140.244,245.887 148.494 C 241.046 151.316,235.351 154.643,233.231 155.889 C 231.111 157.134,229.323 158.153,229.257 158.153 C 229.191 158.153,228.612 158.485,227.970 158.890 C 227.328 159.295,226.332 159.891,225.757 160.214 C 225.183 160.537,220.094 163.502,214.449 166.803 C 201.458 174.400,201.613 174.315,200.765 174.315 C 200.374 174.315,198.776 173.543,197.213 172.601 C 195.651 171.659,193.786 170.569,193.069 170.180 C 192.352 169.792,188.909 167.792,185.417 165.736 C 181.924 163.681,178.483 161.673,177.769 161.274 C 177.055 160.875,171.408 157.581,165.220 153.954 C 159.031 150.326,153.189 146.926,152.237 146.397 C 151.284 145.868,150.310 145.315,150.072 145.168 C 147.885 143.816,144.809 141.991,144.719 141.991 C 144.220 141.991,139.683 138.988,139.683 138.658 C 139.683 138.302,142.501 136.219,142.982 136.219 C 143.066 136.219,143.819 135.787,144.655 135.258 C 145.492 134.730,146.371 134.211,146.609 134.106 C 146.847 134.000,147.294 133.751,147.602 133.552 C 149.111 132.575,151.213 131.313,151.331 131.313 C 151.403 131.313,153.585 130.063,156.179 128.535 C 160.698 125.872,167.382 121.983,169.246 120.932 C 169.732 120.657,171.009 119.894,172.083 119.235 C 173.157 118.576,174.105 118.038,174.189 118.038 C 174.273 118.038,175.018 117.608,175.844 117.082 C 176.669 116.556,177.540 116.036,177.778 115.925 C 178.016 115.814,178.665 115.452,179.221 115.119 C 179.776 114.786,182.569 113.158,185.426 111.500 C 188.283 109.842,190.815 108.368,191.053 108.223 C 191.291 108.078,192.330 107.469,193.362 106.870 C 194.394 106.270,195.498 105.621,195.815 105.426 C 196.133 105.232,196.575 104.981,196.798 104.869 C 197.021 104.757,197.923 104.233,198.801 103.704 C 200.772 102.517,200.922 102.517,202.886 103.697 M137.003 150.546 C 137.762 150.966,138.729 151.550,139.150 151.845 C 139.571 152.140,139.997 152.381,140.095 152.381 C 140.194 152.381,143.130 154.069,146.620 156.133 C 150.110 158.196,153.018 159.885,153.083 159.885 C 153.148 159.885,154.248 160.534,155.528 161.328 C 156.807 162.121,157.911 162.771,157.981 162.771 C 158.050 162.771,159.154 163.420,160.434 164.214 C 161.713 165.007,162.822 165.657,162.897 165.657 C 162.971 165.657,166.689 167.799,171.157 170.418 C 175.626 173.038,179.335 175.180,179.399 175.180 C 179.463 175.180,180.521 175.806,181.749 176.572 C 182.978 177.337,184.177 178.052,184.416 178.162 C 184.654 178.271,185.303 178.633,185.859 178.967 C 186.414 179.301,188.654 180.608,190.837 181.872 C 193.618 183.483,194.850 184.358,194.956 184.798 C 195.040 185.143,195.072 200.426,195.029 218.759 L 194.949 252.092 194.267 252.018 C 193.892 251.977,192.334 251.206,190.804 250.306 C 189.275 249.405,186.400 247.740,184.416 246.606 C 182.431 245.472,178.211 243.043,175.036 241.208 C 171.861 239.374,168.810 237.617,168.254 237.305 C 167.142 236.682,157.083 230.903,146.753 224.954 C 143.102 222.851,139.141 220.576,137.951 219.898 C 136.760 219.220,135.559 218.471,135.281 218.234 C 134.762 217.792,134.454 150.491,134.969 149.976 C 135.278 149.666,135.544 149.741,137.003 150.546 M266.773 150.722 C 266.991 151.535,267.006 216.666,266.788 217.476 C 266.653 217.981,265.082 219.110,262.771 220.366 C 262.453 220.538,260.587 221.611,258.623 222.750 C 256.660 223.888,254.998 224.820,254.930 224.820 C 254.862 224.820,254.096 225.274,253.227 225.830 C 252.359 226.385,251.604 226.840,251.550 226.840 C 251.496 226.840,249.259 228.116,246.577 229.677 C 243.896 231.237,241.056 232.874,240.265 233.316 C 238.647 234.219,233.219 237.370,227.470 240.745 C 225.356 241.986,223.585 243.001,223.535 243.001 C 223.485 243.001,220.878 244.495,217.743 246.320 C 214.607 248.146,212.017 249.639,211.987 249.639 C 211.956 249.639,210.906 250.224,209.652 250.938 C 208.399 251.652,207.207 252.237,207.004 252.237 C 206.707 252.237,206.650 245.717,206.709 218.411 L 206.782 184.585 211.400 181.877 C 213.939 180.387,216.602 178.846,217.316 178.452 C 218.030 178.058,219.228 177.361,219.978 176.904 C 220.727 176.446,222.091 175.656,223.008 175.146 C 223.925 174.637,227.987 172.277,232.035 169.903 C 241.816 164.166,244.393 162.661,245.599 161.982 C 246.154 161.670,247.488 160.875,248.562 160.216 C 249.636 159.558,250.562 159.019,250.618 159.019 C 250.675 159.019,254.146 157.011,258.333 154.557 C 266.549 149.742,266.515 149.758,266.773 150.722 " stroke="none" fill="#fac40a" fill-rule="evenodd"></path><path id="path1" d="M0.000 144.300 L 0.000 288.600 200.000 288.600 L 400.000 288.600 400.000 144.300 L 400.000 0.000 200.000 0.000 L 0.000 0.000 0.000 144.300 M191.342 20.201 C 220.322 25.040,242.179 40.255,255.029 64.535 C 256.938 68.142,256.391 67.932,263.434 67.755 C 279.463 67.351,291.434 69.966,303.695 76.552 C 352.814 102.932,356.504 172.437,310.534 205.375 C 300.890 212.285,296.042 213.050,293.498 208.064 C 291.801 204.737,293.218 201.433,297.303 199.194 C 343.548 173.843,341.913 106.452,294.517 84.365 C 289.687 82.114,284.778 80.647,278.066 79.450 C 273.753 78.680,258.528 78.702,253.310 79.486 C 249.096 80.119,249.460 80.282,248.201 77.201 C 241.484 60.760,229.022 47.199,213.361 39.288 C 164.402 14.559,108.189 51.514,107.942 108.592 C 107.936 110.182,108.236 109.987,103.463 111.508 C 62.996 124.402,56.540 177.651,92.706 200.231 C 93.773 200.898,94.711 201.443,94.790 201.443 C 94.870 201.443,95.814 201.870,96.890 202.393 C 97.966 202.915,99.690 203.654,100.722 204.035 C 105.536 205.812,107.160 210.178,104.264 213.561 C 101.666 216.597,99.370 216.445,91.775 212.734 C 72.652 203.390,60.268 186.101,57.577 164.992 C 54.289 139.204,68.808 113.205,92.496 102.459 C 96.955 100.437,96.510 100.902,96.730 98.036 C 99.234 65.301,123.463 33.996,153.956 24.097 C 160.995 21.811,164.840 20.922,170.707 20.219 C 172.136 20.049,173.694 19.857,174.170 19.793 C 176.033 19.544,189.296 19.859,191.342 20.201 M204.166 90.546 C 205.764 91.457,207.330 92.357,207.648 92.544 C 207.965 92.732,208.775 93.147,209.448 93.467 C 210.121 93.787,211.354 94.494,212.190 95.038 C 214.052 96.252,216.993 97.949,220.058 99.578 C 221.328 100.253,222.711 101.046,223.133 101.341 C 223.554 101.635,223.978 101.876,224.076 101.876 C 224.173 101.876,225.300 102.525,226.579 103.319 C 227.859 104.113,228.944 104.762,228.990 104.762 C 229.157 104.762,234.912 108.066,237.385 109.582 C 239.983 111.175,245.402 114.286,245.579 114.286 C 245.701 114.286,246.339 114.675,246.996 115.152 C 247.653 115.628,248.264 116.017,248.352 116.017 C 248.440 116.017,249.223 116.472,250.092 117.027 C 250.960 117.583,251.736 118.038,251.815 118.038 C 251.895 118.038,252.444 118.340,253.036 118.709 C 253.628 119.078,255.152 119.938,256.421 120.620 C 259.796 122.432,261.217 123.263,262.221 124.010 C 262.712 124.376,263.201 124.675,263.309 124.675 C 263.416 124.675,263.988 124.977,264.580 125.346 C 265.172 125.716,266.631 126.545,267.821 127.189 C 275.935 131.579,278.697 133.426,278.863 134.575 C 278.974 135.345,278.941 212.030,278.825 221.262 L 278.788 224.198 276.898 225.519 C 275.859 226.245,274.937 226.840,274.850 226.840 C 274.763 226.840,274.348 227.079,273.926 227.370 C 273.505 227.662,271.994 228.520,270.569 229.277 C 269.144 230.035,267.456 231.009,266.818 231.443 C 265.773 232.153,259.844 235.651,256.884 237.304 C 256.247 237.660,254.324 238.789,252.610 239.812 C 250.897 240.836,248.716 242.098,247.763 242.617 C 245.476 243.864,242.749 245.383,242.155 245.743 C 240.518 246.734,237.172 248.705,234.055 250.514 C 232.071 251.666,229.149 253.416,227.561 254.404 C 225.974 255.392,223.961 256.560,223.088 257.000 C 222.215 257.441,220.304 258.562,218.842 259.492 C 217.379 260.422,216.106 261.183,216.014 261.183 C 215.869 261.183,214.967 261.716,212.249 263.408 C 211.940 263.600,210.974 264.126,210.101 264.578 C 209.228 265.030,206.877 266.399,204.877 267.620 C 200.755 270.138,200.762 270.136,199.077 269.018 C 198.394 268.565,196.926 267.706,195.815 267.110 C 194.704 266.513,191.912 264.892,189.610 263.508 C 183.301 259.713,181.442 258.636,180.808 258.407 C 180.491 258.293,179.387 257.656,178.355 256.991 C 177.323 256.327,175.375 255.160,174.026 254.398 C 172.677 253.636,169.170 251.621,166.234 249.919 C 163.297 248.217,160.051 246.337,159.019 245.740 C 155.727 243.835,155.483 243.690,151.340 241.185 C 149.101 239.832,146.568 238.370,145.712 237.939 C 144.856 237.507,143.636 236.796,143.001 236.358 C 141.640 235.420,133.691 230.781,133.002 230.522 C 132.740 230.424,131.453 229.671,130.142 228.850 C 128.832 228.028,127.357 227.130,126.867 226.854 C 126.376 226.577,125.227 225.929,124.315 225.414 L 122.655 224.476 122.655 179.056 L 122.655 133.635 123.304 133.238 C 123.662 133.020,125.837 131.759,128.139 130.437 C 130.440 129.114,132.843 127.686,133.478 127.263 C 134.804 126.379,136.495 125.423,139.971 123.594 C 141.320 122.884,142.619 122.135,142.857 121.931 C 143.506 121.373,145.279 120.349,152.092 116.600 C 153.600 115.770,155.485 114.683,156.280 114.183 C 158.443 112.825,158.715 112.667,160.760 111.583 C 161.797 111.033,164.589 109.451,166.965 108.067 C 169.340 106.683,171.999 105.161,172.872 104.684 C 175.971 102.990,181.392 99.793,181.841 99.395 C 182.092 99.172,182.396 98.990,182.518 98.990 C 182.640 98.990,183.084 98.749,183.505 98.454 C 184.188 97.976,186.059 96.916,188.600 95.570 C 189.076 95.317,190.115 94.703,190.909 94.206 C 191.703 93.708,192.973 92.958,193.733 92.538 C 194.492 92.119,195.401 91.590,195.753 91.363 C 200.149 88.528,200.559 88.488,204.166 90.546 M199.711 103.866 C 199.156 104.154,197.532 105.100,196.104 105.968 C 194.675 106.836,192.208 108.265,190.620 109.144 C 189.033 110.024,186.717 111.345,185.474 112.081 C 184.231 112.818,183.137 113.420,183.044 113.420 C 182.950 113.420,182.669 113.600,182.418 113.821 C 182.168 114.041,181.313 114.567,180.519 114.990 C 178.983 115.810,178.356 116.173,177.202 116.914 C 176.804 117.170,175.700 117.806,174.747 118.328 C 173.795 118.851,172.172 119.819,171.140 120.480 C 169.083 121.797,167.572 122.679,164.935 124.099 C 163.983 124.612,162.554 125.451,161.760 125.963 C 159.995 127.102,157.313 128.716,157.185 128.716 C 157.133 128.716,156.010 129.365,154.690 130.159 C 153.369 130.952,152.175 131.602,152.036 131.602 C 151.897 131.602,150.586 132.361,149.124 133.290 C 147.661 134.218,145.068 135.743,143.361 136.678 C 139.716 138.675,139.728 138.547,143.021 140.333 C 144.439 141.102,146.378 142.233,147.330 142.846 C 149.009 143.928,149.768 144.369,152.814 146.032 C 155.873 147.703,157.153 148.426,157.431 148.639 C 157.590 148.761,158.376 149.230,159.178 149.683 C 159.980 150.135,161.343 150.937,162.208 151.466 C 163.073 151.995,165.404 153.372,167.388 154.526 C 169.372 155.681,172.202 157.359,173.676 158.255 C 175.151 159.151,176.423 159.885,176.504 159.885 C 176.585 159.885,177.362 160.339,178.230 160.895 C 179.099 161.450,179.872 161.905,179.950 161.905 C 180.027 161.905,181.321 162.652,182.824 163.564 C 185.934 165.451,185.791 165.369,188.889 167.075 C 191.674 168.608,195.058 170.594,197.967 172.401 C 200.443 173.940,200.699 173.978,202.371 173.054 C 203.051 172.679,204.517 171.884,205.628 171.289 C 206.739 170.694,208.297 169.780,209.091 169.259 C 210.868 168.093,215.001 165.657,215.203 165.657 C 215.284 165.657,215.704 165.405,216.136 165.098 C 216.567 164.790,217.756 164.108,218.778 163.581 C 219.799 163.055,221.219 162.221,221.934 161.730 C 223.175 160.875,224.375 160.183,228.080 158.183 C 229.000 157.686,233.521 155.074,238.127 152.377 C 242.733 149.681,246.557 147.475,246.626 147.475 C 246.695 147.475,247.369 147.037,248.123 146.503 C 249.523 145.511,250.720 144.817,254.545 142.779 C 255.736 142.145,256.905 141.469,257.143 141.277 C 257.381 141.085,258.387 140.444,259.380 139.852 C 261.607 138.522,261.626 138.651,258.988 137.085 C 257.784 136.371,256.455 135.561,256.033 135.285 C 255.612 135.009,255.072 134.691,254.834 134.578 C 254.422 134.383,251.631 132.819,249.584 131.636 C 249.059 131.333,246.811 129.989,244.589 128.650 C 242.367 127.312,239.639 125.724,238.528 125.123 C 237.417 124.521,236.313 123.871,236.075 123.679 C 235.482 123.200,230.090 120.097,227.278 118.617 C 226.011 117.950,224.647 117.190,224.246 116.927 C 222.885 116.035,222.367 115.728,221.789 115.468 C 221.472 115.326,220.758 114.898,220.202 114.517 C 219.646 114.136,218.977 113.743,218.715 113.642 C 218.452 113.542,215.599 111.874,212.375 109.936 C 209.151 107.998,205.924 106.090,205.204 105.696 C 204.485 105.303,203.231 104.607,202.418 104.150 C 200.693 103.180,200.976 103.210,199.711 103.866 M135.546 150.842 C 135.440 150.948,135.354 166.061,135.354 184.428 L 135.354 217.822 137.446 218.916 C 138.597 219.518,140.873 220.833,142.504 221.838 C 144.135 222.843,145.521 223.665,145.582 223.665 C 145.644 223.665,147.126 224.509,148.875 225.541 C 150.623 226.573,152.134 227.417,152.231 227.417 C 152.329 227.417,153.109 227.865,153.966 228.413 C 154.823 228.961,156.407 229.889,157.487 230.474 C 158.568 231.060,159.646 231.689,159.885 231.873 C 160.123 232.057,160.833 232.461,161.462 232.770 C 162.092 233.080,164.015 234.145,165.736 235.137 C 167.456 236.129,168.927 236.941,169.003 236.941 C 169.080 236.941,169.818 237.395,170.642 237.951 C 171.467 238.506,172.227 238.961,172.331 238.961 C 172.562 238.961,180.220 243.432,181.286 244.189 C 181.707 244.488,182.121 244.733,182.206 244.733 C 182.291 244.733,183.440 245.382,184.759 246.175 C 186.078 246.969,187.256 247.618,187.377 247.618 C 187.498 247.619,188.962 248.463,190.631 249.495 C 192.300 250.527,193.859 251.371,194.095 251.371 C 194.874 251.371,194.577 185.075,193.795 184.507 C 192.468 183.542,189.921 181.967,188.167 181.025 C 186.647 180.209,183.071 178.109,180.664 176.619 C 179.747 176.052,176.149 173.916,175.325 173.450 C 174.055 172.732,171.351 171.156,170.851 170.843 C 169.665 170.099,163.530 166.613,161.714 165.650 C 160.577 165.048,158.388 163.764,156.850 162.797 C 155.311 161.830,153.952 161.039,153.829 161.039 C 153.706 161.039,153.444 160.844,153.247 160.606 C 153.049 160.368,152.717 160.173,152.510 160.173 C 152.134 160.173,145.488 156.352,142.701 154.533 C 141.900 154.011,140.212 153.043,138.949 152.381 C 137.686 151.719,136.529 151.059,136.378 150.914 C 136.053 150.600,135.809 150.579,135.546 150.842 M262.771 152.704 C 261.025 153.790,258.752 155.120,257.720 155.659 C 256.688 156.199,254.502 157.435,252.862 158.406 C 251.223 159.378,249.816 160.173,249.737 160.173 C 249.658 160.173,248.921 160.612,248.101 161.147 C 247.280 161.683,246.472 162.170,246.304 162.230 C 246.136 162.289,244.188 163.416,241.975 164.735 C 239.762 166.053,236.977 167.710,235.786 168.417 C 234.596 169.123,233.427 169.829,233.189 169.985 C 232.951 170.141,232.129 170.602,231.363 171.009 C 230.596 171.417,228.064 172.888,225.735 174.278 C 223.406 175.669,220.916 177.117,220.202 177.496 C 218.142 178.588,215.569 180.089,213.911 181.165 C 213.069 181.710,211.282 182.741,209.939 183.456 C 208.596 184.170,207.393 184.971,207.266 185.235 C 206.974 185.840,206.994 250.958,207.286 251.249 C 207.476 251.440,208.371 251.026,211.400 249.344 C 211.876 249.080,213.809 247.934,215.695 246.798 C 217.581 245.662,219.234 244.733,219.369 244.733 C 219.503 244.733,220.298 244.301,221.134 243.772 C 221.971 243.243,222.850 242.719,223.088 242.606 C 223.326 242.494,223.783 242.244,224.104 242.052 C 224.425 241.860,225.334 241.329,226.124 240.871 C 226.915 240.414,228.233 239.602,229.053 239.068 C 229.874 238.533,230.653 238.095,230.785 238.095 C 230.917 238.094,232.104 237.445,233.423 236.652 C 234.742 235.858,235.891 235.209,235.976 235.209 C 236.061 235.209,236.508 234.940,236.971 234.611 C 237.867 233.973,245.590 229.437,245.781 229.437 C 245.843 229.437,246.930 228.788,248.196 227.994 C 249.463 227.201,250.558 226.551,250.631 226.551 C 250.703 226.551,252.215 225.707,253.990 224.675 C 255.765 223.644,257.279 222.799,257.353 222.799 C 257.428 222.799,258.592 222.150,259.940 221.356 C 261.289 220.563,262.446 219.913,262.512 219.913 C 262.578 219.913,263.279 219.459,264.069 218.903 C 264.860 218.348,265.624 217.893,265.767 217.893 C 265.910 217.893,266.107 217.688,266.203 217.437 C 266.459 216.770,266.418 150.994,266.162 150.850 C 266.043 150.783,264.517 151.617,262.771 152.704 " stroke="none" fill="#f3f4f3" fill-rule="evenodd"></path><path id="path2" d="M172.006 20.478 C 171.291 20.601,169.338 20.908,167.664 21.158 C 165.990 21.409,164.261 21.751,163.821 21.918 C 163.381 22.085,162.710 22.222,162.329 22.222 C 161.948 22.222,161.080 22.397,160.400 22.610 C 159.720 22.824,158.189 23.290,156.999 23.645 C 148.369 26.224,140.402 30.216,132.183 36.079 C 123.676 42.146,114.051 52.904,108.688 62.338 C 107.469 64.483,104.051 71.292,103.805 72.066 C 103.715 72.350,103.310 73.362,102.904 74.315 C 102.499 75.267,102.167 76.210,102.166 76.411 C 102.165 76.611,102.038 77.001,101.883 77.277 C 101.476 78.004,100.282 81.783,99.720 84.127 C 99.453 85.238,99.050 86.779,98.824 87.551 C 98.598 88.323,98.413 89.272,98.413 89.659 C 98.413 90.046,98.220 91.232,97.984 92.295 C 97.748 93.358,97.444 95.619,97.307 97.320 C 97.039 100.656,96.927 100.918,95.476 101.616 C 92.640 102.979,87.803 105.400,87.302 105.707 C 72.502 114.769,62.877 128.134,58.988 145.022 C 58.009 149.277,57.369 157.226,57.717 160.817 C 58.241 166.209,58.587 168.965,58.853 169.841 C 58.997 170.317,59.190 171.162,59.283 171.719 C 59.466 172.817,61.297 178.715,61.747 179.654 C 61.899 179.971,62.351 181.032,62.752 182.012 C 68.189 195.305,80.901 207.828,94.805 213.588 C 99.479 215.524,101.443 215.623,103.248 214.015 C 106.480 211.135,105.192 206.071,100.866 204.640 C 75.826 196.358,61.519 165.099,71.597 140.693 C 71.728 140.375,72.155 139.336,72.546 138.384 C 76.921 127.725,87.504 117.241,98.413 112.759 C 101.043 111.678,101.921 111.364,104.473 110.590 L 107.215 109.759 107.408 106.178 C 107.971 95.735,110.017 85.447,112.720 79.466 C 112.946 78.966,113.131 78.459,113.131 78.339 C 113.131 78.106,113.928 76.361,115.825 72.439 C 117.398 69.187,121.146 63.139,122.903 61.018 C 123.044 60.848,123.788 59.874,124.557 58.854 C 132.423 48.415,146.541 38.515,159.307 34.484 C 160.180 34.208,161.414 33.817,162.049 33.613 C 162.684 33.410,164.437 32.984,165.945 32.667 C 172.464 31.294,173.732 31.169,181.097 31.169 C 188.934 31.169,190.185 31.313,198.557 33.187 C 214.103 36.666,230.107 47.600,240.171 61.616 C 243.473 66.216,245.623 70.127,248.952 77.594 L 249.771 79.430 251.220 79.229 C 263.330 77.553,276.217 78.008,285.137 80.427 C 303.276 85.346,318.938 98.798,326.071 115.584 C 326.745 117.172,327.421 118.696,327.573 118.972 C 327.725 119.247,327.850 119.665,327.850 119.900 C 327.850 120.135,328.031 120.753,328.253 121.274 C 332.166 130.474,332.578 146.742,329.224 159.596 C 325.066 175.529,314.280 189.711,299.793 198.293 C 293.963 201.747,293.506 202.255,293.506 205.292 C 293.506 207.929,294.472 209.368,296.970 210.452 C 299.401 211.508,301.460 210.712,308.947 205.823 C 315.524 201.528,323.149 194.084,328.658 186.580 C 332.531 181.304,337.150 171.644,339.212 164.502 C 339.464 163.629,339.864 162.266,340.100 161.472 C 340.336 160.678,340.656 159.216,340.812 158.223 C 340.967 157.230,341.174 156.289,341.271 156.132 C 341.368 155.974,341.566 154.514,341.711 152.887 C 341.857 151.259,342.117 148.499,342.289 146.753 C 343.671 132.773,338.885 114.777,330.263 101.532 C 321.393 87.906,307.136 76.889,292.208 72.125 C 291.097 71.771,289.928 71.378,289.610 71.253 C 288.657 70.877,285.380 70.073,283.838 69.838 C 283.045 69.717,281.876 69.480,281.241 69.311 C 279.059 68.732,269.697 68.110,263.155 68.110 L 256.605 68.110 256.058 67.316 C 255.757 66.880,254.887 65.354,254.124 63.925 C 248.837 54.024,240.385 44.167,231.152 37.139 C 225.819 33.079,218.558 28.914,212.698 26.554 C 211.825 26.202,210.851 25.802,210.534 25.663 C 208.508 24.783,201.755 22.703,199.423 22.242 C 198.709 22.100,197.150 21.792,195.960 21.556 C 194.769 21.320,192.886 20.967,191.775 20.772 C 189.449 20.363,173.999 20.133,172.006 20.478 " stroke="none" fill="#0865ab" fill-rule="evenodd"></path><path id="path3" d="M198.268 89.927 C 197.237 90.490,196.105 91.136,195.753 91.363 C 195.401 91.590,194.492 92.119,193.733 92.538 C 192.973 92.958,191.703 93.708,190.909 94.206 C 190.115 94.703,189.076 95.317,188.600 95.570 C 186.059 96.916,184.188 97.976,183.505 98.454 C 183.084 98.749,182.640 98.990,182.518 98.990 C 182.396 98.990,182.092 99.172,181.841 99.395 C 181.392 99.793,175.971 102.990,172.872 104.684 C 171.999 105.161,169.340 106.683,166.965 108.067 C 164.589 109.451,161.797 111.033,160.760 111.583 C 158.715 112.667,158.443 112.825,156.280 114.183 C 155.485 114.683,153.600 115.770,152.092 116.600 C 145.279 120.349,143.506 121.373,142.857 121.931 C 142.619 122.135,141.320 122.884,139.971 123.594 C 136.495 125.423,134.804 126.379,133.478 127.263 C 132.843 127.686,130.440 129.114,128.139 130.437 C 125.837 131.759,123.662 133.020,123.304 133.238 L 122.655 133.635 122.655 179.056 L 122.655 224.476 124.315 225.414 C 125.227 225.929,126.376 226.577,126.867 226.854 C 127.357 227.130,128.832 228.028,130.142 228.850 C 131.453 229.671,132.740 230.424,133.002 230.522 C 133.691 230.781,141.640 235.420,143.001 236.358 C 143.636 236.796,144.856 237.507,145.712 237.939 C 146.568 238.370,149.101 239.832,151.340 241.185 C 155.483 243.690,155.727 243.835,159.019 245.740 C 160.051 246.337,163.297 248.217,166.234 249.919 C 169.170 251.621,172.677 253.636,174.026 254.398 C 175.375 255.160,177.323 256.327,178.355 256.991 C 179.387 257.656,180.491 258.293,180.808 258.407 C 181.442 258.636,183.301 259.713,189.610 263.508 C 191.912 264.892,194.704 266.513,195.815 267.110 C 196.926 267.706,198.394 268.565,199.077 269.018 C 200.762 270.136,200.755 270.138,204.877 267.620 C 206.877 266.399,209.228 265.030,210.101 264.578 C 210.974 264.126,211.940 263.600,212.249 263.408 C 214.967 261.716,215.869 261.183,216.014 261.183 C 216.106 261.183,217.379 260.422,218.842 259.492 C 220.304 258.562,222.215 257.441,223.088 257.000 C 223.961 256.560,225.974 255.392,227.561 254.404 C 229.149 253.416,232.071 251.666,234.055 250.514 C 237.172 248.705,240.518 246.734,242.155 245.743 C 242.749 245.383,245.476 243.864,247.763 242.617 C 248.716 242.098,250.897 240.836,252.610 239.812 C 254.324 238.789,256.247 237.660,256.884 237.304 C 259.844 235.651,265.773 232.153,266.818 231.443 C 267.456 231.009,269.144 230.035,270.569 229.277 C 271.994 228.520,273.505 227.662,273.926 227.370 C 274.348 227.079,274.763 226.840,274.850 226.840 C 274.937 226.840,275.859 226.245,276.898 225.519 L 278.788 224.198 278.825 221.262 C 278.941 212.030,278.974 135.345,278.863 134.575 C 278.697 133.426,275.935 131.579,267.821 127.189 C 266.631 126.545,265.172 125.716,264.580 125.346 C 263.988 124.977,263.416 124.675,263.309 124.675 C 263.201 124.675,262.712 124.376,262.221 124.010 C 261.217 123.263,259.796 122.432,256.421 120.620 C 255.152 119.938,253.628 119.078,253.036 118.709 C 252.444 118.340,251.895 118.038,251.815 118.038 C 251.736 118.038,250.960 117.583,250.092 117.027 C 249.223 116.472,248.440 116.017,248.352 116.017 C 248.264 116.017,247.653 115.628,246.996 115.152 C 246.339 114.675,245.701 114.286,245.579 114.286 C 245.402 114.286,239.983 111.175,237.385 109.582 C 234.912 108.066,229.157 104.762,228.990 104.762 C 228.944 104.762,227.859 104.113,226.579 103.319 C 225.300 102.525,224.173 101.876,224.076 101.876 C 223.978 101.876,223.554 101.635,223.133 101.341 C 222.711 101.046,221.328 100.253,220.058 99.578 C 216.993 97.949,214.052 96.252,212.190 95.038 C 211.354 94.494,210.121 93.787,209.448 93.467 C 208.775 93.147,207.965 92.732,207.648 92.544 C 200.763 88.471,200.880 88.503,198.268 89.927 M202.165 89.996 C 202.641 90.286,203.615 90.850,204.329 91.251 C 206.376 92.398,214.920 97.333,217.412 98.807 C 218.655 99.542,219.710 100.144,219.756 100.144 C 219.802 100.144,222.097 101.457,224.855 103.061 C 227.613 104.664,230.578 106.371,231.444 106.854 C 232.813 107.617,242.098 112.991,243.290 113.710 C 244.120 114.211,246.906 115.823,248.052 116.465 C 248.687 116.821,251.463 118.424,254.221 120.028 C 256.980 121.632,259.291 122.944,259.358 122.944 C 259.425 122.944,260.190 123.398,261.058 123.954 C 261.927 124.509,262.686 124.964,262.744 124.964 C 262.803 124.964,264.625 126.003,266.793 127.273 C 268.961 128.543,270.800 129.582,270.879 129.582 C 270.958 129.582,271.699 130.012,272.525 130.537 C 273.350 131.063,274.221 131.581,274.459 131.690 C 274.697 131.798,275.147 132.050,275.458 132.249 C 275.769 132.449,276.516 132.906,277.117 133.265 L 278.211 133.918 278.211 178.760 C 278.211 221.053,278.182 223.634,277.706 224.181 C 277.280 224.669,271.792 228.044,270.418 228.662 C 270.180 228.769,269.729 229.020,269.415 229.219 C 268.060 230.081,265.911 231.364,265.512 231.550 C 265.274 231.660,264.625 232.023,264.069 232.356 C 263.514 232.689,259.942 234.783,256.133 237.011 C 252.323 239.238,248.588 241.432,247.831 241.886 C 247.075 242.341,246.396 242.713,246.322 242.713 C 246.248 242.713,245.503 243.145,244.666 243.674 C 243.830 244.203,242.951 244.721,242.713 244.826 C 242.475 244.932,242.025 245.181,241.714 245.381 C 240.916 245.892,239.089 246.979,238.004 247.590 C 237.286 247.994,219.848 258.174,215.391 260.791 C 201.207 269.119,200.882 269.286,199.891 268.781 C 199.138 268.397,196.289 266.747,191.440 263.886 C 189.200 262.564,187.057 261.327,185.859 260.665 C 185.144 260.270,184.235 259.724,183.838 259.452 C 183.442 259.180,182.468 258.599,181.674 258.162 C 180.313 257.412,162.346 246.944,160.173 245.635 C 159.618 245.300,158.968 244.938,158.730 244.831 C 158.492 244.723,157.613 244.203,156.777 243.674 C 155.940 243.145,155.198 242.713,155.127 242.713 C 155.057 242.713,153.988 242.096,152.754 241.342 C 149.534 239.376,149.396 239.294,148.918 239.062 C 148.507 238.863,132.804 229.737,131.890 229.167 C 130.845 228.515,126.725 226.108,125.541 225.458 C 124.827 225.066,124.015 224.547,123.737 224.305 C 123.260 223.889,123.232 221.364,123.232 178.926 L 123.232 133.987 124.381 133.227 C 125.012 132.809,125.581 132.468,125.646 132.468 C 125.710 132.468,128.293 130.995,131.385 129.195 C 134.477 127.394,137.187 125.837,137.407 125.733 C 137.627 125.630,138.001 125.416,138.240 125.260 C 138.478 125.103,141.205 123.523,144.300 121.749 C 151.656 117.533,159.639 112.939,167.677 108.294 C 171.248 106.230,174.820 104.182,175.613 103.743 C 176.407 103.304,179.004 101.809,181.385 100.421 C 183.766 99.034,186.234 97.609,186.869 97.255 C 187.504 96.901,190.101 95.407,192.641 93.935 C 201.363 88.880,200.750 89.134,202.165 89.996 M198.801 103.704 C 197.923 104.233,197.021 104.757,196.798 104.869 C 196.575 104.981,196.133 105.232,195.815 105.426 C 195.498 105.621,194.394 106.270,193.362 106.870 C 192.330 107.469,191.291 108.078,191.053 108.223 C 190.815 108.368,188.283 109.842,185.426 111.500 C 182.569 113.158,179.776 114.786,179.221 115.119 C 178.665 115.452,178.016 115.814,177.778 115.925 C 177.540 116.036,176.669 116.556,175.844 117.082 C 175.018 117.608,174.273 118.038,174.189 118.038 C 174.105 118.038,173.157 118.576,172.083 119.235 C 171.009 119.894,169.732 120.657,169.246 120.932 C 167.382 121.983,160.698 125.872,156.179 128.535 C 153.585 130.063,151.403 131.313,151.331 131.313 C 151.213 131.313,149.111 132.575,147.602 133.552 C 147.294 133.751,146.847 134.000,146.609 134.106 C 146.371 134.211,145.492 134.730,144.655 135.258 C 143.819 135.787,143.066 136.219,142.982 136.219 C 142.501 136.219,139.683 138.302,139.683 138.658 C 139.683 138.988,144.220 141.991,144.719 141.991 C 144.809 141.991,147.885 143.816,150.072 145.168 C 150.310 145.315,151.284 145.868,152.237 146.397 C 153.189 146.926,159.031 150.326,165.220 153.954 C 171.408 157.581,177.055 160.875,177.769 161.274 C 178.483 161.673,181.924 163.681,185.417 165.736 C 188.909 167.792,192.352 169.792,193.069 170.180 C 193.786 170.569,195.651 171.659,197.213 172.601 C 198.776 173.543,200.374 174.315,200.765 174.315 C 201.613 174.315,201.458 174.400,214.449 166.803 C 220.094 163.502,225.183 160.537,225.757 160.214 C 226.332 159.891,227.328 159.295,227.970 158.890 C 228.612 158.485,229.191 158.153,229.257 158.153 C 229.323 158.153,231.111 157.134,233.231 155.889 C 235.351 154.643,241.046 151.316,245.887 148.494 C 260.041 140.244,262.049 139.020,262.049 138.639 C 262.049 138.306,260.595 137.085,260.198 137.085 C 260.101 137.085,258.986 136.436,257.720 135.642 C 256.454 134.848,255.368 134.199,255.307 134.199 C 255.246 134.199,250.104 131.212,243.880 127.561 C 237.655 123.911,232.496 120.924,232.415 120.924 C 232.334 120.924,231.923 120.682,231.502 120.388 C 231.081 120.093,230.152 119.528,229.437 119.133 C 228.407 118.563,215.586 111.106,211.356 108.616 C 210.856 108.322,209.557 107.563,208.470 106.930 C 207.383 106.297,206.234 105.621,205.916 105.426 C 205.599 105.232,205.144 104.978,204.906 104.862 C 204.668 104.746,203.759 104.221,202.886 103.697 C 200.922 102.517,200.772 102.517,198.801 103.704 M202.418 104.150 C 203.231 104.607,204.485 105.303,205.204 105.696 C 205.924 106.090,209.151 107.998,212.375 109.936 C 215.599 111.874,218.452 113.542,218.715 113.642 C 218.977 113.743,219.646 114.136,220.202 114.517 C 220.758 114.898,221.472 115.326,221.789 115.468 C 222.367 115.728,222.885 116.035,224.246 116.927 C 224.647 117.190,226.011 117.950,227.278 118.617 C 230.090 120.097,235.482 123.200,236.075 123.679 C 236.313 123.871,237.417 124.521,238.528 125.123 C 239.639 125.724,242.367 127.312,244.589 128.650 C 246.811 129.989,249.059 131.333,249.584 131.636 C 251.631 132.819,254.422 134.383,254.834 134.578 C 255.072 134.691,255.612 135.009,256.033 135.285 C 256.455 135.561,257.784 136.371,258.988 137.085 C 261.626 138.651,261.607 138.522,259.380 139.852 C 258.387 140.444,257.381 141.085,257.143 141.277 C 256.905 141.469,255.736 142.145,254.545 142.779 C 250.720 144.817,249.523 145.511,248.123 146.503 C 247.369 147.037,246.695 147.475,246.626 147.475 C 246.557 147.475,242.733 149.681,238.127 152.377 C 233.521 155.074,229.000 157.686,228.080 158.183 C 224.375 160.183,223.175 160.875,221.934 161.730 C 221.219 162.221,219.799 163.055,218.778 163.581 C 217.756 164.108,216.567 164.790,216.136 165.098 C 215.704 165.405,215.284 165.657,215.203 165.657 C 215.001 165.657,210.868 168.093,209.091 169.259 C 208.297 169.780,206.739 170.694,205.628 171.289 C 204.517 171.884,203.051 172.679,202.371 173.054 C 200.699 173.978,200.443 173.940,197.967 172.401 C 195.058 170.594,191.674 168.608,188.889 167.075 C 185.791 165.369,185.934 165.451,182.824 163.564 C 181.321 162.652,180.027 161.905,179.950 161.905 C 179.872 161.905,179.099 161.450,178.230 160.895 C 177.362 160.339,176.585 159.885,176.504 159.885 C 176.423 159.885,175.151 159.151,173.676 158.255 C 172.202 157.359,169.372 155.681,167.388 154.526 C 165.404 153.372,163.073 151.995,162.208 151.466 C 161.343 150.937,159.980 150.135,159.178 149.683 C 158.376 149.230,157.590 148.761,157.431 148.639 C 157.153 148.426,155.873 147.703,152.814 146.032 C 149.768 144.369,149.009 143.928,147.330 142.846 C 146.378 142.233,144.439 141.102,143.021 140.333 C 139.728 138.547,139.716 138.675,143.361 136.678 C 145.068 135.743,147.661 134.218,149.124 133.290 C 150.586 132.361,151.897 131.602,152.036 131.602 C 152.175 131.602,153.369 130.952,154.690 130.159 C 156.010 129.365,157.133 128.716,157.185 128.716 C 157.313 128.716,159.995 127.102,161.760 125.963 C 162.554 125.451,163.983 124.612,164.935 124.099 C 167.572 122.679,169.083 121.797,171.140 120.480 C 172.172 119.819,173.795 118.851,174.747 118.328 C 175.700 117.806,176.804 117.170,177.202 116.914 C 178.356 116.173,178.983 115.810,180.519 114.990 C 181.313 114.567,182.168 114.041,182.418 113.821 C 182.669 113.600,182.950 113.420,183.044 113.420 C 183.137 113.420,184.231 112.818,185.474 112.081 C 186.717 111.345,189.033 110.024,190.620 109.144 C 192.208 108.265,194.675 106.836,196.104 105.968 C 198.505 104.509,200.568 103.358,200.831 103.330 C 200.891 103.324,201.605 103.693,202.418 104.150 M134.969 149.976 C 134.454 150.491,134.762 217.792,135.281 218.234 C 135.559 218.471,136.760 219.220,137.951 219.898 C 139.141 220.576,143.102 222.851,146.753 224.954 C 157.083 230.903,167.142 236.682,168.254 237.305 C 168.810 237.617,171.861 239.374,175.036 241.208 C 178.211 243.043,182.431 245.472,184.416 246.606 C 186.400 247.740,189.275 249.405,190.804 250.306 C 192.334 251.206,193.892 251.977,194.267 252.018 L 194.949 252.092 195.029 218.759 C 195.072 200.426,195.040 185.143,194.956 184.798 C 194.850 184.358,193.618 183.483,190.837 181.872 C 188.654 180.608,186.414 179.301,185.859 178.967 C 185.303 178.633,184.654 178.271,184.416 178.162 C 184.177 178.052,182.978 177.337,181.749 176.572 C 180.521 175.806,179.463 175.180,179.399 175.180 C 179.335 175.180,175.626 173.038,171.157 170.418 C 166.689 167.799,162.971 165.657,162.897 165.657 C 162.822 165.657,161.713 165.007,160.434 164.214 C 159.154 163.420,158.050 162.771,157.981 162.771 C 157.911 162.771,156.807 162.121,155.528 161.328 C 154.248 160.534,153.148 159.885,153.083 159.885 C 153.018 159.885,150.110 158.196,146.620 156.133 C 143.130 154.069,140.194 152.381,140.095 152.381 C 139.997 152.381,139.571 152.140,139.150 151.845 C 137.056 150.380,135.334 149.610,134.969 149.976 M258.333 154.557 C 254.146 157.011,250.675 159.019,250.618 159.019 C 250.562 159.019,249.636 159.558,248.562 160.216 C 247.488 160.875,246.154 161.670,245.599 161.982 C 244.393 162.661,241.816 164.166,232.035 169.903 C 227.987 172.277,223.925 174.637,223.008 175.146 C 222.091 175.656,220.727 176.446,219.978 176.904 C 219.228 177.361,218.030 178.058,217.316 178.452 C 216.602 178.846,213.939 180.387,211.400 181.877 L 206.782 184.585 206.709 218.411 C 206.650 245.717,206.707 252.237,207.004 252.237 C 207.207 252.237,208.399 251.652,209.652 250.938 C 210.906 250.224,211.956 249.639,211.987 249.639 C 212.017 249.639,214.607 248.146,217.743 246.320 C 220.878 244.495,223.485 243.001,223.535 243.001 C 223.585 243.001,225.356 241.986,227.470 240.745 C 233.219 237.370,238.647 234.219,240.265 233.316 C 241.056 232.874,243.896 231.237,246.577 229.677 C 249.259 228.116,251.496 226.840,251.550 226.840 C 251.604 226.840,252.359 226.385,253.227 225.830 C 254.096 225.274,254.862 224.820,254.930 224.820 C 254.998 224.820,256.660 223.888,258.623 222.750 C 260.587 221.611,262.453 220.538,262.771 220.366 C 265.082 219.110,266.653 217.981,266.788 217.476 C 267.006 216.666,266.991 151.535,266.773 150.722 C 266.515 149.758,266.549 149.742,258.333 154.557 M136.378 150.914 C 136.529 151.059,137.686 151.719,138.949 152.381 C 140.212 153.043,141.900 154.011,142.701 154.533 C 145.488 156.352,152.134 160.173,152.510 160.173 C 152.717 160.173,153.049 160.368,153.247 160.606 C 153.444 160.844,153.706 161.039,153.829 161.039 C 153.952 161.039,155.311 161.830,156.850 162.797 C 158.388 163.764,160.577 165.048,161.714 165.650 C 163.530 166.613,169.665 170.099,170.851 170.843 C 171.351 171.156,174.055 172.732,175.325 173.450 C 176.149 173.916,179.747 176.052,180.664 176.619 C 183.071 178.109,186.647 180.209,188.167 181.025 C 189.921 181.967,192.468 183.542,193.795 184.507 C 194.577 185.075,194.874 251.371,194.095 251.371 C 193.859 251.371,192.300 250.527,190.631 249.495 C 188.962 248.463,187.498 247.619,187.377 247.618 C 187.256 247.618,186.078 246.969,184.759 246.175 C 183.440 245.382,182.291 244.733,182.206 244.733 C 182.121 244.733,181.707 244.488,181.286 244.189 C 180.220 243.432,172.562 238.961,172.331 238.961 C 172.227 238.961,171.467 238.506,170.642 237.951 C 169.818 237.395,169.080 236.941,169.003 236.941 C 168.927 236.941,167.456 236.129,165.736 235.137 C 164.015 234.145,162.092 233.080,161.462 232.770 C 160.833 232.461,160.123 232.057,159.885 231.873 C 159.646 231.689,158.568 231.060,157.487 230.474 C 156.407 229.889,154.823 228.961,153.966 228.413 C 153.109 227.865,152.329 227.417,152.231 227.417 C 152.134 227.417,150.623 226.573,148.875 225.541 C 147.126 224.509,145.644 223.665,145.582 223.665 C 145.521 223.665,144.135 222.843,142.504 221.838 C 140.873 220.833,138.597 219.518,137.446 218.916 L 135.354 217.822 135.354 184.428 C 135.354 166.061,135.440 150.948,135.546 150.842 C 135.809 150.579,136.053 150.600,136.378 150.914 M266.378 183.976 C 266.378 215.805,266.340 217.893,265.767 217.893 C 265.624 217.893,264.860 218.348,264.069 218.903 C 263.279 219.459,262.578 219.913,262.512 219.913 C 262.446 219.913,261.289 220.563,259.940 221.356 C 258.592 222.150,257.428 222.799,257.353 222.799 C 257.279 222.799,255.765 223.644,253.990 224.675 C 252.215 225.707,250.703 226.551,250.631 226.551 C 250.558 226.551,249.463 227.201,248.196 227.994 C 246.930 228.788,245.843 229.437,245.781 229.437 C 245.590 229.437,237.867 233.973,236.971 234.611 C 236.508 234.940,236.061 235.209,235.976 235.209 C 235.891 235.209,234.742 235.858,233.423 236.652 C 232.104 237.445,230.917 238.094,230.785 238.095 C 230.653 238.095,229.874 238.533,229.053 239.068 C 228.233 239.602,226.915 240.414,226.124 240.871 C 225.334 241.329,224.425 241.860,224.104 242.052 C 223.783 242.244,223.326 242.494,223.088 242.606 C 222.850 242.719,221.971 243.243,221.134 243.772 C 220.298 244.301,219.503 244.733,219.369 244.733 C 219.234 244.733,217.581 245.662,215.695 246.798 C 213.809 247.934,211.876 249.080,211.400 249.344 C 208.371 251.026,207.476 251.440,207.286 251.249 C 206.994 250.958,206.974 185.840,207.266 185.235 C 207.393 184.971,208.596 184.170,209.939 183.456 C 211.282 182.741,213.069 181.710,213.911 181.165 C 215.569 180.089,218.142 178.588,220.202 177.496 C 220.916 177.117,223.406 175.669,225.735 174.278 C 228.064 172.888,230.596 171.417,231.363 171.009 C 232.129 170.602,232.951 170.141,233.189 169.985 C 233.427 169.829,234.596 169.123,235.786 168.417 C 236.977 167.710,239.762 166.053,241.975 164.735 C 244.188 163.416,246.136 162.289,246.304 162.230 C 246.472 162.170,247.280 161.683,248.101 161.147 C 248.921 160.612,249.658 160.173,249.737 160.173 C 249.816 160.173,251.223 159.378,252.862 158.406 C 254.502 157.435,256.688 156.199,257.720 155.659 C 258.752 155.120,261.025 153.790,262.771 152.704 C 264.517 151.617,266.043 150.783,266.162 150.850 C 266.281 150.917,266.378 165.824,266.378 183.976 " stroke="none" fill="#f9e591" fill-rule="evenodd"></path><path id="path4" d="M174.170 19.793 C 173.694 19.857,172.136 20.049,170.707 20.219 C 157.386 21.813,143.252 27.321,132.792 34.992 C 112.137 50.141,98.581 73.840,96.730 98.036 C 96.510 100.902,96.955 100.437,92.496 102.459 C 49.573 121.929,44.841 181.816,84.127 208.384 C 91.871 213.622,99.615 216.596,102.145 215.306 C 107.429 212.610,106.621 206.212,100.722 204.035 C 99.690 203.654,97.966 202.915,96.890 202.393 C 95.814 201.870,94.870 201.443,94.790 201.443 C 94.711 201.443,93.773 200.898,92.706 200.231 C 56.540 177.651,62.996 124.402,103.463 111.508 C 108.236 109.987,107.936 110.182,107.942 108.592 C 108.189 51.514,164.402 14.559,213.361 39.288 C 229.022 47.199,241.484 60.760,248.201 77.201 C 249.460 80.282,249.096 80.119,253.310 79.486 C 258.528 78.702,273.753 78.680,278.066 79.450 C 284.778 80.647,289.687 82.114,294.517 84.365 C 341.913 106.452,343.548 173.843,297.303 199.194 C 293.218 201.433,291.801 204.737,293.498 208.064 C 296.042 213.050,300.890 212.285,310.534 205.375 C 356.504 172.437,352.814 102.932,303.695 76.552 C 291.434 69.966,279.463 67.351,263.434 67.755 C 256.391 67.932,256.938 68.142,255.029 64.535 C 242.179 40.255,220.322 25.040,191.342 20.201 C 189.296 19.859,176.033 19.544,174.170 19.793 M191.775 20.772 C 192.886 20.967,194.769 21.320,195.960 21.556 C 197.150 21.792,198.709 22.100,199.423 22.242 C 201.755 22.703,208.508 24.783,210.534 25.663 C 210.851 25.802,211.825 26.202,212.698 26.554 C 218.558 28.914,225.819 33.079,231.152 37.139 C 240.385 44.167,248.837 54.024,254.124 63.925 C 254.887 65.354,255.757 66.880,256.058 67.316 L 256.605 68.110 263.155 68.110 C 269.697 68.110,279.059 68.732,281.241 69.311 C 281.876 69.480,283.045 69.717,283.838 69.838 C 285.380 70.073,288.657 70.877,289.610 71.253 C 289.928 71.378,291.097 71.771,292.208 72.125 C 296.577 73.519,300.838 75.439,305.339 78.042 C 320.902 87.039,332.259 100.786,338.382 118.038 C 341.293 126.238,343.045 139.110,342.289 146.753 C 342.117 148.499,341.857 151.259,341.711 152.887 C 341.566 154.514,341.368 155.974,341.271 156.132 C 341.174 156.289,340.967 157.230,340.812 158.223 C 340.656 159.216,340.336 160.678,340.100 161.472 C 339.864 162.266,339.464 163.629,339.212 164.502 C 337.150 171.644,332.531 181.304,328.658 186.580 C 323.149 194.084,315.524 201.528,308.947 205.823 C 301.460 210.712,299.401 211.508,296.970 210.452 C 294.472 209.368,293.506 207.929,293.506 205.292 C 293.506 202.255,293.963 201.747,299.793 198.293 C 317.104 188.038,328.527 170.522,331.052 150.361 C 332.252 140.778,330.996 127.723,328.253 121.274 C 328.031 120.753,327.850 120.135,327.850 119.900 C 327.850 119.665,327.725 119.247,327.573 118.972 C 327.421 118.696,326.745 117.172,326.071 115.584 C 318.938 98.798,303.276 85.346,285.137 80.427 C 276.217 78.008,263.330 77.553,251.220 79.229 L 249.771 79.430 248.952 77.594 C 245.623 70.127,243.473 66.216,240.171 61.616 C 230.107 47.600,214.103 36.666,198.557 33.187 C 190.185 31.313,188.934 31.169,181.097 31.169 C 173.732 31.169,172.464 31.294,165.945 32.667 C 164.437 32.984,162.684 33.410,162.049 33.613 C 161.414 33.817,160.180 34.208,159.307 34.484 C 146.541 38.515,132.423 48.415,124.557 58.854 C 123.788 59.874,123.044 60.848,122.903 61.018 C 121.146 63.139,117.398 69.187,115.825 72.439 C 113.928 76.361,113.131 78.106,113.131 78.339 C 113.131 78.459,112.946 78.966,112.720 79.466 C 110.017 85.447,107.971 95.735,107.408 106.178 L 107.215 109.759 104.473 110.590 C 99.693 112.040,97.073 113.169,92.935 115.565 C 84.129 120.665,76.156 129.587,72.546 138.384 C 72.155 139.336,71.728 140.375,71.597 140.693 C 67.684 150.168,67.400 162.928,70.864 173.595 C 75.478 187.800,87.470 200.209,100.866 204.640 C 105.192 206.071,106.480 211.135,103.248 214.015 C 101.443 215.623,99.479 215.524,94.805 213.588 C 80.901 207.828,68.189 195.305,62.752 182.012 C 62.351 181.032,61.899 179.971,61.747 179.654 C 61.297 178.715,59.466 172.817,59.283 171.719 C 59.190 171.162,58.997 170.317,58.853 169.841 C 58.587 168.965,58.241 166.209,57.717 160.817 C 57.369 157.226,58.009 149.277,58.988 145.022 C 62.877 128.134,72.502 114.769,87.302 105.707 C 87.803 105.400,92.640 102.979,95.476 101.616 C 96.927 100.918,97.039 100.656,97.307 97.320 C 97.444 95.619,97.748 93.358,97.984 92.295 C 98.220 91.232,98.413 90.046,98.413 89.659 C 98.413 89.272,98.598 88.323,98.824 87.551 C 99.050 86.779,99.453 85.238,99.720 84.127 C 100.282 81.783,101.476 78.004,101.883 77.277 C 102.038 77.001,102.165 76.611,102.166 76.411 C 102.167 76.210,102.499 75.267,102.904 74.315 C 103.310 73.362,103.715 72.350,103.805 72.066 C 104.051 71.292,107.469 64.483,108.688 62.338 C 114.051 52.904,123.676 42.146,132.183 36.079 C 140.402 30.216,148.369 26.224,156.999 23.645 C 158.189 23.290,159.720 22.824,160.400 22.610 C 161.080 22.397,161.948 22.222,162.329 22.222 C 162.710 22.222,163.381 22.085,163.821 21.918 C 164.261 21.751,165.990 21.409,167.664 21.158 C 169.338 20.908,171.291 20.601,172.006 20.478 C 173.999 20.133,189.449 20.363,191.775 20.772 " stroke="none" fill="#226594" fill-rule="evenodd"></path></g></svg>