<svg version="1.1" id="Layer_1" xmlns="http://www.w3.org/2000/svg" xmlns:xlink="http://www.w3.org/1999/xlink" x="0px" y="0px"
	 width="100%" viewBox="0 0 380 413" enable-background="new 0 0 380 413" xml:space="preserve">
<path fill="#0F0E18" opacity="1.000000" stroke="none" 
	d="
M102.000000,414.000000 
	C89.312439,414.000000 76.624878,414.000000 63.160515,413.719971 
	C49.821793,413.317719 37.259941,413.183258 24.697729,413.113251 
	C24.133484,413.110077 23.565983,413.691071 23.000000,414.000000 
	C15.669137,414.000000 8.338274,414.000000 1.005559,414.000000 
	C1.003706,276.382172 1.003706,138.764359 1.003706,1.073273 
	C127.575104,1.073273 254.150269,1.073273 380.862732,1.073273 
	C380.862732,138.666565 380.862732,276.333252 380.862732,414.000000 
	C358.255005,414.000000 335.596161,414.000000 312.160461,413.720398 
	C297.149414,413.316650 282.915283,413.181763 268.680786,413.108337 
	C268.122070,413.105438 267.560333,413.689453 267.000000,414.000000 
	C233.979111,414.000000 200.958206,414.000000 167.163437,413.715790 
	C165.748535,413.291412 165.107651,413.029572 164.466461,413.028748 
	C144.875198,413.003723 125.283875,412.986359 105.692772,413.043793 
	C104.460930,413.047394 103.230881,413.666962 102.000000,414.000000 
M275.109558,91.749168 
	C269.459137,91.555321 263.806580,91.151543 258.158752,91.210175 
	C245.355988,91.343063 232.556610,91.788620 219.753860,91.944489 
	C209.758163,92.066185 207.664246,93.253685 205.904129,103.029617 
	C202.341614,122.816559 199.223267,142.683502 195.927780,162.518463 
	C194.773468,169.466019 189.344864,174.687195 182.947830,174.979172 
	C175.898621,175.300888 170.246979,170.993149 168.755493,163.618317 
	C167.539154,157.603912 166.895035,151.475494 165.927979,145.408661 
	C163.575531,130.650314 161.439697,115.850449 158.699768,101.163727 
	C157.294418,93.630699 153.671432,91.236206 146.019455,91.167427 
	C139.189560,91.106033 132.356430,91.060104 125.528488,91.195885 
	C111.063110,91.483559 96.600166,91.894142 81.313545,92.101585 
	C68.236588,93.585716 56.609009,98.980667 48.220863,108.737541 
	C31.199808,128.535980 22.508633,152.115189 22.100502,178.209930 
	C21.523184,215.122177 21.602510,252.053589 25.041283,288.870239 
	C26.627577,305.853638 34.587620,319.711365 46.641907,331.421661 
	C46.999752,331.769287 47.874481,331.584808 48.936665,332.154083 
	C57.112991,345.388214 69.948433,352.793549 83.479424,358.979462 
	C111.325783,371.709900 140.975403,376.262024 171.311783,377.220490 
	C205.217072,378.291779 238.462692,374.747437 270.295929,362.258728 
	C284.955139,356.507660 298.668518,349.111969 309.938263,336.983093 
	C322.733002,323.625153 334.301239,309.592957 335.877747,289.252960 
	C335.898956,288.493469 335.920166,287.733948 336.486237,286.373688 
	C336.969391,272.583954 337.452545,258.794250 337.987549,244.114883 
	C337.978455,241.736328 337.969360,239.357773 338.519409,236.369034 
	C338.651489,235.723099 338.898132,235.077316 338.899109,234.431183 
	C338.931488,213.274979 339.112793,192.116333 338.818329,170.964355 
	C338.753326,166.295700 336.990631,161.650665 335.992157,156.329071 
	C335.953888,155.886963 335.915619,155.444855 335.927551,154.226303 
	C335.123688,151.532074 334.537109,148.747635 333.464935,146.164780 
	C331.860291,142.299179 329.914246,138.575287 328.127197,134.385025 
	C328.127197,134.385025 328.069489,133.982773 328.055023,133.213303 
	C326.654633,130.072357 325.506378,126.787712 323.811737,123.814484 
	C314.846985,108.085999 302.684631,96.296692 284.196289,92.719200 
	C282.804291,92.449860 281.174744,93.408386 279.421021,93.735435 
	C279.421021,93.735435 279.196625,93.826874 278.771362,93.564507 
	C278.517334,93.342384 278.316559,93.079575 278.045013,92.257996 
	C277.365021,92.097771 276.685028,91.937538 275.109558,91.749168 
z"/>
<path fill="#26272B" opacity="1.000000" stroke="none" 
	d="
M102.468658,414.000000 
	C103.230881,413.666962 104.460930,413.047394 105.692772,413.043793 
	C125.283875,412.986359 144.875198,413.003723 164.466461,413.028748 
	C165.107651,413.029572 165.748535,413.291412 166.694778,413.715790 
	C145.645767,414.000000 124.291542,414.000000 102.468658,414.000000 
z"/>
<path fill="#26272B" opacity="1.000000" stroke="none" 
	d="
M267.468658,414.000000 
	C267.560333,413.689453 268.122070,413.105438 268.680786,413.108337 
	C282.915283,413.181763 297.149414,413.316650 311.691833,413.720398 
	C297.312439,414.000000 282.624878,414.000000 267.468658,414.000000 
z"/>
<path fill="#26272B" opacity="1.000000" stroke="none" 
	d="
M23.468657,414.000000 
	C23.565983,413.691071 24.133484,413.110077 24.697729,413.113251 
	C37.259941,413.183258 49.821793,413.317719 62.691856,413.719971 
	C49.979103,414.000000 36.958210,414.000000 23.468657,414.000000 
z"/>
<path fill="#FDFDFD" opacity="1.000000" stroke="none" 
	d="
M309.273987,337.013275 
	C298.668518,349.111969 284.955139,356.507660 270.295929,362.258728 
	C238.462692,374.747437 205.217072,378.291779 171.311783,377.220490 
	C140.975403,376.262024 111.325783,371.709900 83.479424,358.979462 
	C69.948433,352.793549 57.112991,345.388214 48.704071,331.535889 
	C46.326637,325.197906 43.547993,319.627991 42.153297,313.730774 
	C37.583099,294.406403 37.626354,274.669434 38.066139,254.651398 
	C40.274147,241.202621 45.354572,229.525970 55.048462,219.886169 
	C58.779163,219.624710 60.680920,217.918549 60.901459,214.314972 
	C61.188068,213.994553 61.406731,213.909622 62.093697,213.934738 
	C64.128769,213.644196 65.740677,213.024765 67.328644,213.080994 
	C71.083267,213.214005 72.386093,211.437775 71.980347,207.976181 
	C71.996979,208.001740 71.952621,207.958923 72.247971,207.963562 
	C73.026550,207.673233 73.509773,207.378250 74.150841,206.971466 
	C74.308685,206.859680 74.695427,206.869156 75.067200,206.914551 
	C76.298958,206.605530 77.158951,206.251129 78.108002,205.798355 
	C78.197060,205.699982 78.444244,205.796585 78.823524,205.874786 
	C80.396210,205.540756 81.589615,205.128494 82.852325,204.718307 
	C82.921638,204.720383 82.788834,204.760254 82.999496,204.801880 
	C83.513733,204.821198 83.760117,204.690857 84.382652,204.382462 
	C86.567787,204.343811 88.319588,204.375168 90.413879,204.606812 
	C92.696709,204.816605 94.637039,204.826096 96.962921,204.771027 
	C109.783752,206.396225 119.944023,212.577972 129.181427,221.051834 
	C129.781815,221.574875 130.282776,221.824326 131.010620,222.083038 
	C131.237488,222.092316 131.691452,222.104782 131.744675,222.369507 
	C131.843781,222.808334 131.889648,222.982407 131.986282,223.459839 
	C132.669556,224.185883 133.302063,224.608566 134.219635,225.188416 
	C135.970261,226.655151 137.435852,227.964752 138.941376,229.474533 
	C139.112534,229.946960 139.328857,230.093857 139.738617,230.379181 
	C140.005280,230.748215 140.163605,230.853470 140.281403,231.118866 
	C140.240891,231.278992 140.185608,231.604706 140.136963,232.012299 
	C139.585373,236.810379 142.932327,237.773010 146.215790,239.190643 
	C146.977814,240.242935 147.486725,241.122086 147.984283,242.385284 
	C148.727814,243.810333 149.482712,244.851349 150.444946,246.095474 
	C150.884003,246.826096 151.115707,247.353607 151.055466,248.073883 
	C151.489853,249.185883 152.216202,250.105087 153.131622,251.225189 
	C153.470520,251.949982 153.620331,252.473923 153.648224,253.134003 
	C153.727203,253.510651 153.928101,253.751129 154.349670,254.267273 
	C156.605469,260.038971 158.640610,265.535034 160.692078,271.452484 
	C161.435989,275.901886 162.163605,279.929871 162.514740,283.964294 
	C160.766617,284.304443 159.394958,284.638153 157.588379,285.042725 
	C155.101700,285.085632 153.049957,285.057709 150.758240,284.745422 
	C145.373474,281.719513 140.798370,283.127472 136.797897,286.719788 
	C135.961746,287.470642 135.431213,289.954895 135.992126,290.659821 
	C144.637329,301.525085 153.534470,312.189392 162.236038,323.010620 
	C163.526733,324.615753 164.198975,326.749115 165.018814,328.696442 
	C168.254410,336.381836 170.133331,344.778381 176.411148,350.873169 
	C179.924530,354.284119 181.812958,353.744751 183.979187,348.981384 
	C183.999390,348.998779 183.963531,348.959106 184.325378,348.946655 
	C186.799911,345.190186 189.241104,341.588165 190.937485,337.664154 
	C192.824722,333.298676 193.183655,328.072723 195.739288,324.243408 
	C199.462143,318.665192 204.602844,314.043213 209.048981,308.935181 
	C214.745193,302.390961 221.813049,296.875580 224.940521,288.032562 
	C223.425003,286.769684 222.012741,285.374878 220.389832,284.297363 
	C218.490280,283.036163 216.425980,282.181213 214.583191,285.111633 
	C212.779678,285.130432 211.389191,285.081757 209.742432,284.751038 
	C205.668182,284.294708 201.850189,284.120392 197.990204,283.554779 
	C198.651443,280.109619 199.354660,277.055725 200.214996,273.926636 
	C200.438568,273.757477 200.580719,273.634125 200.557724,273.574921 
	C200.479599,273.373993 200.343109,273.195709 200.143036,272.765717 
	C200.007858,272.358093 199.958527,272.193481 200.065872,271.851257 
	C200.292496,271.349548 200.461151,271.089447 201.102783,270.870972 
	C204.592667,266.553925 207.257111,262.124023 205.753265,256.320587 
	C205.714676,256.185120 205.922668,255.995102 206.284622,255.955322 
	C210.585754,253.652451 211.780777,250.244003 210.830383,245.591309 
	C211.758896,243.791992 212.670120,242.334229 213.939819,240.918579 
	C215.491348,241.303162 216.684387,241.645645 217.877441,241.988129 
	C218.216156,241.617188 218.554871,241.246231 218.893570,240.875290 
	C217.867325,239.898697 216.841080,238.922104 215.911728,237.632965 
	C217.232269,235.841324 218.455902,234.362213 219.973480,232.789764 
	C220.525314,232.163605 220.783188,231.630783 221.161407,230.830505 
	C221.855042,230.042404 222.428360,229.521729 223.229126,228.894257 
	C223.632706,228.509796 223.808838,228.232147 224.122986,227.668732 
	C225.516541,226.259781 226.772079,225.136581 228.326294,223.983307 
	C229.096176,223.389191 229.567413,222.825119 230.203537,222.029053 
	C230.842712,221.498184 231.317001,221.199326 232.126328,220.957504 
	C233.303162,221.330826 234.144958,221.647125 234.993408,222.283508 
	C235.698029,223.040787 236.609726,224.011810 237.060364,223.831345 
	C240.916183,222.287445 241.827332,219.387909 240.296021,214.917526 
	C244.060455,212.792923 247.530487,210.853500 251.386993,208.922424 
	C258.432709,207.335678 265.091919,205.740601 272.151825,204.240784 
	C278.468048,205.639130 284.626587,206.291077 290.245850,208.388046 
	C300.283722,212.133926 307.333649,219.943436 314.000092,228.007385 
	C314.002655,228.000473 313.988983,228.000214 314.042847,228.356842 
	C316.739075,235.136368 319.381378,241.559235 322.009338,248.370483 
	C322.349304,250.512207 322.703613,252.265564 322.979675,254.447693 
	C323.008057,256.902313 323.114685,258.928192 323.133301,261.396240 
	C323.105865,264.237274 323.166443,266.636200 323.125732,269.486969 
	C321.310028,285.516632 320.228210,301.202332 317.597992,316.623901 
	C316.393158,323.688110 312.143036,330.232941 309.273987,337.013275 
M278.517700,254.250366 
	C283.664093,256.544128 283.920807,256.337677 283.974915,249.161148 
	C283.747894,245.162537 281.719635,244.703018 278.621521,246.474701 
	C269.393585,251.751755 260.113220,256.941650 250.983566,262.384064 
	C246.904007,264.815948 246.890274,266.894684 250.903107,269.283630 
	C260.038391,274.722015 269.265076,280.016235 278.612366,285.077759 
	C279.839966,285.742493 281.992004,284.700043 283.715881,284.448273 
	C282.983765,282.981567 282.625732,280.989899 281.446960,280.150024 
	C278.347870,277.941895 274.538330,276.653137 271.664642,274.225403 
	C267.841187,270.995270 261.282776,271.113983 259.914612,264.416534 
	C265.821350,260.968811 271.848480,257.450806 278.517700,254.250366 
M82.917892,258.746338 
	C82.613785,260.534973 82.069489,262.320618 82.047150,264.112762 
	C81.950256,271.885895 87.073914,278.363373 94.490578,280.066833 
	C101.952133,281.780609 109.736893,278.263550 113.014931,271.697754 
	C116.395454,264.926697 114.478210,256.181183 108.566528,251.406494 
	C100.101440,244.569534 89.066910,247.434830 82.917892,258.746338 
z"/>
<path fill="#1D3863" opacity="1.000000" stroke="none" 
	d="
M37.836311,254.952484 
	C37.626354,274.669434 37.583099,294.406403 42.153297,313.730774 
	C43.547993,319.627991 46.326637,325.197906 48.489849,331.283081 
	C47.874481,331.584808 46.999752,331.769287 46.641907,331.421661 
	C34.587620,319.711365 26.627577,305.853638 25.041283,288.870239 
	C21.602510,252.053589 21.523184,215.122177 22.100502,178.209930 
	C22.508633,152.115189 31.199808,128.535980 48.220863,108.737541 
	C56.609009,98.980667 68.236588,93.585716 81.662445,92.476028 
	C81.375175,93.909431 80.739006,94.968384 79.796280,96.178398 
	C67.421219,110.048843 58.151760,125.355042 52.768150,143.220428 
	C52.359341,144.290375 52.207985,145.150055 52.028355,146.371704 
	C51.982029,147.459518 51.963970,148.185364 51.639858,149.106430 
	C49.584866,155.536636 47.835926,161.771652 46.054951,168.427551 
	C45.365356,172.896820 44.707802,176.945206 44.004471,181.396484 
	C43.000107,187.202301 42.041523,192.605225 41.059238,198.407181 
	C41.026787,199.872009 41.018032,200.937790 40.760178,202.222473 
	C40.401783,203.300674 40.292488,204.159973 40.143673,205.415161 
	C40.085808,206.871567 40.067467,207.932083 39.988922,209.306244 
	C39.929096,210.753403 39.929462,211.886932 39.924149,213.413239 
	C39.897797,214.853256 39.877132,215.900482 39.618469,217.211182 
	C39.253036,218.649796 39.125595,219.824936 38.987770,221.333130 
	C38.984215,222.110382 38.991043,222.554581 38.729843,223.292816 
	C38.338520,226.065201 38.215229,228.543533 38.056515,231.394104 
	C38.005314,232.514847 37.989536,233.263367 37.959938,234.393921 
	C37.978600,235.541733 38.011082,236.307541 37.985638,237.437698 
	C37.897243,243.518875 37.866779,249.235672 37.836311,254.952484 
z"/>
<path fill="#1B3865" opacity="1.000000" stroke="none" 
	d="
M323.227020,269.035095 
	C323.166443,266.636200 323.105865,264.237274 323.355194,261.102905 
	C323.462738,258.251282 323.260315,256.135101 323.057922,254.018936 
	C322.703613,252.265564 322.349304,250.512207 322.280334,248.071411 
	C322.653778,243.951477 322.741913,240.518936 322.875000,236.678101 
	C322.594208,233.842026 322.268433,231.414246 321.947571,228.614670 
	C321.918701,227.500473 321.884918,226.758057 321.895142,225.570419 
	C321.283783,220.081726 320.628387,215.038254 319.980804,209.664001 
	C319.972565,208.892426 319.956512,208.451630 319.963287,207.581680 
	C319.651245,204.770660 319.316345,202.388809 318.987061,199.632675 
	C318.949921,198.511551 318.907227,197.764694 318.896942,196.612579 
	C318.296753,193.467545 317.664215,190.727783 317.035797,187.573395 
	C316.980194,185.778580 316.920471,184.398407 316.854065,182.621246 
	C314.909790,173.811188 312.972229,165.398102 311.028625,156.597610 
	C310.347992,153.807266 309.673401,151.404312 308.991608,148.632507 
	C308.328064,146.506897 307.671722,144.750122 307.004456,142.662964 
	C306.954620,141.893585 306.915710,141.454605 306.864899,140.700348 
	C306.266144,139.869415 305.679291,139.353775 305.079346,138.462646 
	C304.364563,135.726852 303.662933,133.366531 302.927795,130.646912 
	C299.943817,125.165398 296.993317,120.043175 293.908691,114.633575 
	C293.165741,113.232361 292.556946,112.118515 291.915100,110.689423 
	C291.269897,109.889328 290.657776,109.404472 289.997009,108.615372 
	C289.301666,107.539352 288.654968,106.767586 287.965515,105.661827 
	C286.970795,104.510895 286.018799,103.693954 285.056213,102.657707 
	C285.045654,102.438400 284.991455,102.002640 284.855225,101.703156 
	C283.497864,100.235283 282.276733,99.066895 280.992310,97.600021 
	C280.320251,96.849518 279.711487,96.397499 279.086975,95.591507 
	C279.113037,94.767319 279.154816,94.297096 279.196625,93.826874 
	C279.196625,93.826874 279.421021,93.735435 279.973572,93.828705 
	C285.022461,95.402954 289.741638,96.431129 293.947754,98.501602 
	C297.615997,100.307297 300.401215,103.988739 304.114868,105.603111 
	C311.727692,108.912476 315.503448,114.673637 318.497650,122.108986 
	C320.314301,126.620209 324.788940,130.061066 328.069489,133.982773 
	C328.069489,133.982773 328.127197,134.385025 328.082947,135.027222 
	C330.651581,142.113876 333.264465,148.558304 335.877319,155.002747 
	C335.915619,155.444855 335.953888,155.886963 335.722626,156.953430 
	C335.366547,159.714661 335.070190,161.867615 335.232727,163.985382 
	C335.726318,170.417465 336.817383,176.829468 336.916565,183.261002 
	C337.165802,199.422028 336.968903,215.589600 337.039856,231.754166 
	C337.047516,233.497162 337.639374,235.237595 337.960236,236.979218 
	C337.969360,239.357773 337.978455,241.736328 337.581299,244.667160 
	C336.783752,246.888885 336.143463,248.543304 336.041748,250.230209 
	C335.391907,261.008728 334.790649,271.791656 334.373535,282.580902 
	C334.317780,284.023071 335.390961,285.508850 335.941345,286.974457 
	C335.920166,287.733948 335.898956,288.493469 335.498474,289.716431 
	C333.074585,295.827911 331.160461,301.527985 328.936981,307.104675 
	C327.579620,310.509064 325.746307,313.723663 324.126740,317.023529 
	C323.381744,316.846710 322.636780,316.669922 321.891815,316.493134 
	C321.744202,314.704895 321.329987,312.891724 321.494720,311.132721 
	C322.241302,303.162811 323.491760,295.225281 323.891296,287.242584 
	C324.193726,281.199646 323.485474,275.106110 323.227020,269.035095 
z"/>
<path fill="#2D5499" opacity="1.000000" stroke="none" 
	d="
M278.984009,93.695694 
	C279.154816,94.297096 279.113037,94.767319 278.653778,95.599052 
	C268.994934,95.306564 259.758911,94.559456 250.510529,94.026909 
	C242.567169,93.569511 234.593719,93.572838 226.662308,92.984848 
	C215.460709,92.154411 211.378708,94.287849 207.621460,104.254944 
	C206.715057,106.659370 206.849243,109.451828 206.473373,112.061302 
	C205.319214,120.074249 204.384232,128.127853 202.929611,136.086258 
	C200.901840,147.180511 202.238968,158.898880 196.230240,169.299210 
	C193.958237,173.231705 188.566757,177.917313 184.026184,177.999985 
	C173.303619,178.195221 167.785385,173.707001 165.984299,163.195724 
	C163.951370,151.331406 161.909119,139.467545 160.034668,127.577660 
	C158.856445,120.103966 158.168167,112.549637 156.859695,105.101814 
	C156.429428,102.652672 155.285248,99.836777 153.523895,98.210800 
	C149.160950,94.183189 143.926605,91.928543 137.664856,92.963165 
	C134.246567,93.527977 130.764725,93.812149 127.299934,93.973618 
	C111.569832,94.706665 95.835587,95.351044 80.102844,96.027328 
	C80.739006,94.968384 81.375175,93.909431 82.073792,92.552399 
	C96.600166,91.894142 111.063110,91.483559 125.528488,91.195885 
	C132.356430,91.060104 139.189560,91.106033 146.019455,91.167427 
	C153.671432,91.236206 157.294418,93.630699 158.699768,101.163727 
	C161.439697,115.850449 163.575531,130.650314 165.927979,145.408661 
	C166.895035,151.475494 167.539154,157.603912 168.755493,163.618317 
	C170.246979,170.993149 175.898621,175.300888 182.947830,174.979172 
	C189.344864,174.687195 194.773468,169.466019 195.927780,162.518463 
	C199.223267,142.683502 202.341614,122.816559 205.904129,103.029617 
	C207.664246,93.253685 209.758163,92.066185 219.753860,91.944489 
	C232.556610,91.788620 245.355988,91.343063 258.158752,91.210175 
	C263.806580,91.151543 269.459137,91.555321 275.712097,92.058990 
	C276.932800,92.504570 277.550934,92.640320 278.169098,92.776077 
	C278.316559,93.079575 278.517334,93.342384 278.984009,93.695694 
z"/>
<path fill="#253758" opacity="1.000000" stroke="none" 
	d="
M323.125732,269.486969 
	C323.485474,275.106110 324.193726,281.199646 323.891296,287.242584 
	C323.491760,295.225281 322.241302,303.162811 321.494720,311.132721 
	C321.329987,312.891724 321.744202,314.704895 321.891815,316.493134 
	C322.636780,316.669922 323.381744,316.846710 324.126740,317.023529 
	C325.746307,313.723663 327.579620,310.509064 328.936981,307.104675 
	C331.160461,301.527985 333.074585,295.827911 335.441406,290.092529 
	C334.301239,309.592957 322.733002,323.625153 309.606140,336.998169 
	C312.143036,330.232941 316.393158,323.688110 317.597992,316.623901 
	C320.228210,301.202332 321.310028,285.516632 323.125732,269.486969 
z"/>
<path fill="#253758" opacity="1.000000" stroke="none" 
	d="
M328.062256,133.598038 
	C324.788940,130.061066 320.314301,126.620209 318.497650,122.108986 
	C315.503448,114.673637 311.727692,108.912476 304.114868,105.603111 
	C300.401215,103.988739 297.615997,100.307297 293.947754,98.501602 
	C289.741638,96.431129 285.022461,95.402954 280.090881,93.859055 
	C281.174744,93.408386 282.804291,92.449860 284.196289,92.719200 
	C302.684631,96.296692 314.846985,108.085999 323.811737,123.814484 
	C325.506378,126.787712 326.654633,130.072357 328.062256,133.598038 
z"/>
<path fill="#253758" opacity="1.000000" stroke="none" 
	d="
M338.239807,236.674133 
	C337.639374,235.237595 337.047516,233.497162 337.039856,231.754166 
	C336.968903,215.589600 337.165802,199.422028 336.916565,183.261002 
	C336.817383,176.829468 335.726318,170.417465 335.232727,163.985382 
	C335.070190,161.867615 335.366547,159.714661 335.731384,157.286270 
	C336.990631,161.650665 338.753326,166.295700 338.818329,170.964355 
	C339.112793,192.116333 338.931488,213.274979 338.899109,234.431183 
	C338.898132,235.077316 338.651489,235.723099 338.239807,236.674133 
z"/>
<path fill="#253758" opacity="1.000000" stroke="none" 
	d="
M336.213806,286.674072 
	C335.390961,285.508850 334.317780,284.023071 334.373535,282.580902 
	C334.790649,271.791656 335.391907,261.008728 336.041748,250.230209 
	C336.143463,248.543304 336.783752,246.888885 337.555359,245.111969 
	C337.452545,258.794250 336.969391,272.583954 336.213806,286.674072 
z"/>
<path fill="#253758" opacity="1.000000" stroke="none" 
	d="
M335.902435,154.614532 
	C333.264465,148.558304 330.651581,142.113876 328.076050,135.230286 
	C329.914246,138.575287 331.860291,142.299179 333.464935,146.164780 
	C334.537109,148.747635 335.123688,151.532074 335.902435,154.614532 
z"/>
<path fill="#253758" opacity="1.000000" stroke="none" 
	d="
M278.107056,92.517036 
	C277.550934,92.640320 276.932800,92.504570 276.159851,92.073059 
	C276.685028,91.937538 277.365021,92.097771 278.107056,92.517036 
z"/>
<path fill="#2C57A5" opacity="1.000000" stroke="none" 
	d="
M79.796280,96.178398 
	C95.835587,95.351044 111.569832,94.706665 127.299934,93.973618 
	C130.764725,93.812149 134.246567,93.527977 137.664856,92.963165 
	C143.926605,91.928543 149.160950,94.183189 153.523895,98.210800 
	C155.285248,99.836777 156.429428,102.652672 156.859695,105.101814 
	C158.168167,112.549637 158.856445,120.103966 160.034668,127.577660 
	C161.909119,139.467545 163.951370,151.331406 165.984299,163.195724 
	C167.785385,173.707001 173.303619,178.195221 184.026184,177.999985 
	C188.566757,177.917313 193.958237,173.231705 196.230240,169.299210 
	C202.238968,158.898880 200.901840,147.180511 202.929611,136.086258 
	C204.384232,128.127853 205.319214,120.074249 206.473373,112.061302 
	C206.849243,109.451828 206.715057,106.659370 207.621460,104.254944 
	C211.378708,94.287849 215.460709,92.154411 226.662308,92.984848 
	C234.593719,93.572838 242.567169,93.569511 250.510529,94.026909 
	C259.758911,94.559456 268.994934,95.306564 278.669525,95.953018 
	C279.711487,96.397499 280.320251,96.849518 280.980164,97.985153 
	C282.351349,99.780067 283.671387,100.891357 284.991455,102.002640 
	C284.991455,102.002640 285.045654,102.438400 285.069763,103.009872 
	C286.065308,104.386169 287.036804,105.190994 288.008270,105.995819 
	C288.654968,106.767586 289.301666,107.539352 290.024658,108.938263 
	C290.716705,110.045158 291.332428,110.524910 291.948151,111.004662 
	C292.556946,112.118515 293.165741,113.232361 293.904266,115.052124 
	C294.276001,122.441269 297.105988,127.609344 302.961273,131.006210 
	C303.662933,133.366531 304.364563,135.726852 305.086670,138.790497 
	C305.696991,140.001114 306.286865,140.508377 306.876770,141.015640 
	C306.915710,141.454605 306.954620,141.893585 306.766052,142.888306 
	C307.358643,145.296494 308.178711,147.148926 308.998779,149.001358 
	C309.673401,151.404312 310.347992,153.807266 310.749268,156.878677 
	C311.198395,164.764938 311.715393,172.014267 312.814392,179.174271 
	C313.037567,180.628342 315.454926,181.745651 316.860748,183.018219 
	C316.920471,184.398407 316.980194,185.778580 316.757935,187.854248 
	C316.307343,191.644577 314.079193,195.320374 318.864563,197.017838 
	C318.907227,197.764694 318.949921,198.511551 318.729004,199.886856 
	C318.907349,203.023605 314.631805,206.460266 319.940460,208.010834 
	C319.956512,208.451630 319.972565,208.892426 319.633362,209.742584 
	C319.228210,214.373779 318.989044,218.607590 319.254791,222.809479 
	C319.325531,223.928452 320.943512,224.949585 321.851135,226.015656 
	C321.884918,226.758057 321.918701,227.500473 321.536377,228.618057 
	C319.739624,228.999207 318.358978,229.005188 316.686707,228.879974 
	C315.593048,228.499252 314.791016,228.249741 313.988983,228.000214 
	C313.988983,228.000214 314.002655,228.000473 314.015198,227.634064 
	C314.022430,226.520813 314.017151,225.773956 314.164337,224.925018 
	C314.203400,224.550049 314.090027,224.277176 313.768951,223.888046 
	C313.303802,223.572098 313.114716,223.320938 312.882416,222.798798 
	C312.569244,222.306396 312.308655,222.113098 311.705994,221.855240 
	C310.283173,220.475952 309.143372,219.240799 307.976135,217.708496 
	C307.622986,216.943176 307.297302,216.475006 306.675415,215.849335 
	C303.455750,213.512726 300.653351,211.142883 297.583801,209.193878 
	C291.035309,205.035965 284.127625,201.859955 275.593781,202.939911 
	C273.428436,202.947952 271.696594,202.934296 269.815643,202.722534 
	C269.123260,202.660843 268.580048,202.797287 267.655273,202.946777 
	C266.510254,202.969467 265.746796,202.979080 264.784424,202.753082 
	C263.726501,202.951553 262.867523,203.385635 261.632507,203.900970 
	C259.504395,204.313751 257.752319,204.645248 255.766144,204.730087 
	C255.057220,204.377945 254.479935,204.041656 254.122375,204.200363 
	C241.313065,209.885986 229.832489,217.218979 220.361465,227.927734 
	C209.025818,240.744781 201.298187,255.085999 197.711456,272.128418 
	C185.896912,275.424377 174.401779,275.101746 162.955109,271.440216 
	C160.479279,264.150482 158.504395,257.008087 155.367569,250.418884 
	C153.072342,245.597565 151.936157,239.469345 145.728699,237.356262 
	C145.737549,237.333572 145.771881,237.299011 145.722595,237.017929 
	C145.366547,236.536194 145.059769,236.335526 144.809921,236.126373 
	C144.866852,236.117874 144.794693,236.207581 144.859192,235.815826 
	C143.819122,234.326782 142.714569,233.229477 141.370544,232.044342 
	C140.815903,231.839233 140.500748,231.721970 140.185608,231.604706 
	C140.185608,231.604706 140.240891,231.278992 140.371704,230.949982 
	C140.211792,230.452438 139.921036,230.283920 139.630280,230.115402 
	C139.328857,230.093857 139.112534,229.946960 138.967987,229.080261 
	C138.567337,224.043869 136.125595,221.940399 131.691452,222.104782 
	C131.691452,222.104782 131.237488,222.092316 131.054230,221.899963 
	C130.870956,221.707611 130.869156,221.331207 130.881165,220.965408 
	C129.713730,219.045258 128.796921,217.157227 127.313210,215.989456 
	C115.660263,206.817871 102.878860,201.171173 87.514549,201.889099 
	C73.500214,202.543930 62.203373,208.443573 52.559528,217.964355 
	C48.943825,221.533936 46.172497,225.958817 42.695580,229.991776 
	C41.970730,229.428772 41.093384,228.586777 41.234295,228.349472 
	C42.938438,225.479736 41.505459,224.039764 38.997871,222.998779 
	C38.991043,222.554581 38.984215,222.110382 39.327091,221.266693 
	C39.736683,219.560699 39.796574,218.254211 39.856464,216.947708 
	C39.877132,215.900482 39.897797,214.853256 40.227242,213.256348 
	C42.031567,211.251312 42.987858,209.866653 40.049122,208.992599 
	C40.067467,207.932083 40.085808,206.871567 40.439407,205.347610 
	C40.852867,203.923981 40.931072,202.963776 41.009277,202.003586 
	C41.018032,200.937790 41.026787,199.872009 41.414253,198.311569 
	C43.325684,193.297440 45.011272,188.819092 46.248882,184.220200 
	C46.469288,183.401184 44.830536,182.081863 44.050247,180.993576 
	C44.707802,176.945206 45.365356,172.896820 46.397102,168.343491 
	C50.060894,161.957214 52.018551,155.711761 51.945911,148.911224 
	C51.963970,148.185364 51.982029,147.459518 52.338547,146.314362 
	C52.793205,144.933426 52.909401,143.971786 53.025597,143.010147 
	C58.151760,125.355042 67.421219,110.048843 79.796280,96.178398 
z"/>
<path fill="#F1BF21" opacity="1.000000" stroke="none" 
	d="
M150.998199,285.029785 
	C153.049957,285.057709 155.101700,285.085632 157.894485,285.179474 
	C160.151245,285.244537 161.666992,285.243713 163.481110,285.414612 
	C175.122101,290.147400 186.476852,289.470612 198.209793,285.730652 
	C202.386734,285.541779 206.192703,285.287415 209.998688,285.033051 
	C211.389191,285.081757 212.779678,285.130432 214.848572,285.349121 
	C221.987457,287.352661 222.737442,289.391785 218.438202,294.264771 
	C212.278427,301.246521 205.863571,308.004517 199.758072,315.032196 
	C197.065109,318.131958 194.157852,321.359253 192.587158,325.055267 
	C189.279297,332.839081 186.789215,340.970398 183.963531,348.959106 
	C183.963531,348.959106 183.999390,348.998779 183.612717,349.011597 
	C179.297623,350.871063 177.306152,349.167572 175.470596,345.572754 
	C170.222809,335.295227 167.670929,323.666046 159.447662,314.852203 
	C153.115295,308.065063 147.261490,300.821533 141.397720,293.615845 
	C140.290176,292.254822 139.214691,289.683929 139.792511,288.456726 
	C140.413254,287.138367 142.936218,286.520111 144.745697,286.009247 
	C146.761383,285.440125 148.908371,285.336182 150.998199,285.029785 
z"/>
<path fill="#233C5F" opacity="1.000000" stroke="none" 
	d="
M197.838837,285.665100 
	C186.476852,289.470612 175.122101,290.147400 163.495377,285.072357 
	C163.104584,284.358215 162.997894,284.158020 162.891205,283.957855 
	C162.163605,279.929871 161.435989,275.901886 160.980621,271.546448 
	C161.821228,271.420898 162.389603,271.622803 162.957993,271.824707 
	C174.401779,275.101746 185.896912,275.424377 198.032806,272.179443 
	C199.046921,271.965973 199.478058,271.997406 199.909180,272.028870 
	C199.958527,272.193481 200.007858,272.358093 200.017654,272.999786 
	C200.004715,273.651886 200.031296,273.826874 200.057892,274.001831 
	C199.354660,277.055725 198.651443,280.109619 197.867920,283.826904 
	C197.804688,284.881927 197.821762,285.273499 197.838837,285.665100 
z"/>
<path fill="#1C313E" opacity="1.000000" stroke="none" 
	d="
M277.875641,253.932800 
	C271.848480,257.450806 265.821350,260.968811 259.914612,264.416534 
	C261.282776,271.113983 267.841187,270.995270 271.664642,274.225403 
	C274.538330,276.653137 278.347870,277.941895 281.446960,280.150024 
	C282.625732,280.989899 282.983765,282.981567 283.715881,284.448273 
	C281.992004,284.700043 279.839966,285.742493 278.612366,285.077759 
	C269.265076,280.016235 260.038391,274.722015 250.903107,269.283630 
	C246.890274,266.894684 246.904007,264.815948 250.983566,262.384064 
	C260.113220,256.941650 269.393585,251.751755 278.621521,246.474701 
	C281.719635,244.703018 283.747894,245.162537 283.650543,249.645660 
	C281.509338,251.397720 279.692505,252.665253 277.875641,253.932800 
z"/>
<path fill="#476192" opacity="1.000000" stroke="none" 
	d="
M43.016201,229.993744 
	C46.172497,225.958817 48.943825,221.533936 52.559528,217.964355 
	C62.203373,208.443573 73.500214,202.543930 87.514549,201.889099 
	C102.878860,201.171173 115.660263,206.817871 127.313210,215.989456 
	C128.796921,217.157227 129.713730,219.045258 130.579437,220.880127 
	C129.871140,221.033157 129.476562,220.905701 129.082001,220.778244 
	C119.944023,212.577972 109.783752,206.396225 96.608200,204.536102 
	C93.935760,204.379318 92.003571,204.392914 90.071388,204.406525 
	C88.319588,204.375168 86.567787,204.343811 84.166779,204.301331 
	C83.161400,204.271317 82.918488,204.428009 82.788834,204.760254 
	C82.788834,204.760254 82.921638,204.720383 82.477585,204.714569 
	C80.837097,205.071381 79.640671,205.433990 78.444244,205.796600 
	C78.444244,205.796585 78.197060,205.699982 77.749222,205.790390 
	C76.432732,206.210251 75.564079,206.539703 74.695427,206.869156 
	C74.695427,206.869156 74.308685,206.859680 73.853798,206.955902 
	C72.916817,207.354401 72.434723,207.656662 71.952621,207.958923 
	C71.952621,207.958923 71.996979,208.001740 71.621307,208.001602 
	C68.050301,209.971970 64.854973,211.942459 61.659645,213.912949 
	C61.406731,213.909622 61.188068,213.994553 60.568016,214.408875 
	C58.306725,216.383545 56.481071,218.117081 54.655426,219.850616 
	C45.354572,229.525970 40.274147,241.202621 38.066139,254.651398 
	C37.866779,249.235672 37.897243,243.518875 38.342239,237.371552 
	C42.394886,235.985336 43.195660,233.290039 43.016201,229.993744 
z"/>
<path fill="#1E323C" opacity="1.000000" stroke="none" 
	d="
M83.045273,258.373413 
	C89.066910,247.434830 100.101440,244.569534 108.566528,251.406494 
	C114.478210,256.181183 116.395454,264.926697 113.014931,271.697754 
	C109.736893,278.263550 101.952133,281.780609 94.490578,280.066833 
	C87.073914,278.363373 81.950256,271.885895 82.047150,264.112762 
	C82.069489,262.320618 82.613785,260.534973 83.045273,258.373413 
M85.930954,270.198364 
	C87.706924,271.034027 91.037094,271.920471 91.011734,272.697327 
	C90.817833,278.635986 95.145096,277.095306 97.965889,276.886444 
	C101.244659,276.643677 105.662109,276.396851 107.447960,274.316772 
	C112.401436,268.547089 110.688828,261.881470 108.003067,255.292145 
	C106.240250,250.967148 102.489906,252.258102 99.574760,251.437973 
	C94.999184,250.150711 85.777611,256.051361 85.158752,260.659698 
	C84.769203,263.560486 85.309921,266.586212 85.930954,270.198364 
z"/>
<path fill="#FCF6D5" opacity="1.000000" stroke="none" 
	d="
M150.758240,284.745422 
	C148.908371,285.336182 146.761383,285.440125 144.745697,286.009247 
	C142.936218,286.520111 140.413254,287.138367 139.792511,288.456726 
	C139.214691,289.683929 140.290176,292.254822 141.397720,293.615845 
	C147.261490,300.821533 153.115295,308.065063 159.447662,314.852203 
	C167.670929,323.666046 170.222809,335.295227 175.470596,345.572754 
	C177.306152,349.167572 179.297623,350.871063 183.592529,348.994202 
	C181.812958,353.744751 179.924530,354.284119 176.411148,350.873169 
	C170.133331,344.778381 168.254410,336.381836 165.018814,328.696442 
	C164.198975,326.749115 163.526733,324.615753 162.236038,323.010620 
	C153.534470,312.189392 144.637329,301.525085 135.992126,290.659821 
	C135.431213,289.954895 135.961746,287.470642 136.797897,286.719788 
	C140.798370,283.127472 145.373474,281.719513 150.758240,284.745422 
z"/>
<path fill="#446093" opacity="1.000000" stroke="none" 
	d="
M200.065872,271.851257 
	C199.478058,271.997406 199.046921,271.965973 198.294434,271.883484 
	C201.298187,255.085999 209.025818,240.744781 220.361465,227.927734 
	C229.832489,217.218979 241.313065,209.885986 254.122375,204.200363 
	C254.479935,204.041656 255.057220,204.377945 255.543961,204.984543 
	C254.037430,206.628479 252.518982,207.771301 251.000519,208.914093 
	C247.530487,210.853500 244.060455,212.792923 240.001831,214.874420 
	C238.940918,215.338928 238.468597,215.661331 237.742615,216.023590 
	C237.234451,216.283539 236.979935,216.503616 236.431793,216.809906 
	C235.396851,217.570862 234.655548,218.245590 233.636353,219.030777 
	C232.836060,219.727646 232.313675,220.314056 231.791290,220.900467 
	C231.317001,221.199326 230.842712,221.498184 229.926239,222.087753 
	C228.998596,222.923431 228.513123,223.468399 228.027649,224.013367 
	C226.772079,225.136581 225.516541,226.259781 223.872818,227.747742 
	C223.323654,228.408691 223.162674,228.704880 223.001678,229.001068 
	C222.428360,229.521729 221.855042,230.042404 220.890717,230.950150 
	C220.226303,231.852509 219.952911,232.367798 219.679535,232.883087 
	C218.455902,234.362213 217.232269,235.841324 215.627655,237.772293 
	C214.691559,239.108261 214.136444,239.992371 213.581345,240.876465 
	C212.670120,242.334229 211.758896,243.791992 210.560791,245.791901 
	C208.823486,249.554413 207.373077,252.774750 205.922668,255.995102 
	C205.922668,255.995102 205.714676,256.185120 205.483643,256.588989 
	C203.744583,261.626373 202.236557,266.259857 200.728531,270.893372 
	C200.461151,271.089447 200.292496,271.349548 200.065872,271.851257 
z"/>
<path fill="#FCF6D5" opacity="1.000000" stroke="none" 
	d="
M184.325378,348.946655 
	C186.789215,340.970398 189.279297,332.839081 192.587158,325.055267 
	C194.157852,321.359253 197.065109,318.131958 199.758072,315.032196 
	C205.863571,308.004517 212.278427,301.246521 218.438202,294.264771 
	C222.737442,289.391785 221.987457,287.352661 215.261566,285.281647 
	C216.425980,282.181213 218.490280,283.036163 220.389832,284.297363 
	C222.012741,285.374878 223.425003,286.769684 224.940521,288.032562 
	C221.813049,296.875580 214.745193,302.390961 209.048981,308.935181 
	C204.602844,314.043213 199.462143,318.665192 195.739288,324.243408 
	C193.183655,328.072723 192.824722,333.298676 190.937485,337.664154 
	C189.241104,341.588165 186.799911,345.190186 184.325378,348.946655 
z"/>
<path fill="#446093" opacity="1.000000" stroke="none" 
	d="
M312.994019,223.018311 
	C313.114716,223.320938 313.303802,223.572098 313.773987,224.143860 
	C313.995117,224.686340 314.003479,224.856720 314.011871,225.027115 
	C314.017151,225.773956 314.022430,226.520813 314.012634,227.640976 
	C307.333649,219.943436 300.283722,212.133926 290.245850,208.388046 
	C284.626587,206.291077 278.468048,205.639130 272.525848,204.138763 
	C273.675232,203.600388 274.851257,203.259308 276.027313,202.918228 
	C284.127625,201.859955 291.035309,205.035965 297.583801,209.193878 
	C300.653351,211.142883 303.455750,213.512726 306.708435,216.144180 
	C307.359619,217.066238 307.681580,217.535934 308.003571,218.005646 
	C309.143372,219.240799 310.283173,220.475952 311.822510,222.070953 
	C312.423218,222.700378 312.680542,222.896210 312.994019,223.018311 
z"/>
<path fill="#476192" opacity="1.000000" stroke="none" 
	d="
M162.955109,271.440216 
	C162.389603,271.622803 161.821228,271.420898 160.964294,271.125031 
	C158.640610,265.535034 156.605469,260.038971 154.339844,253.989929 
	C153.996277,253.290558 153.883194,253.144196 153.770126,252.997849 
	C153.620331,252.473923 153.470520,251.949982 153.132660,250.919937 
	C152.412216,249.569580 151.879822,248.725357 151.347427,247.881119 
	C151.115707,247.353607 150.884003,246.826096 150.400787,245.766861 
	C149.431396,244.157181 148.713516,243.079208 147.995651,242.001236 
	C147.486725,241.122086 146.977814,240.242935 146.201599,238.913559 
	C145.862808,238.101883 145.791321,237.740417 145.719833,237.378967 
	C151.936157,239.469345 153.072342,245.597565 155.367569,250.418884 
	C158.504395,257.008087 160.479279,264.150482 162.955109,271.440216 
z"/>
<path fill="#446093" opacity="1.000000" stroke="none" 
	d="
M314.042847,228.356842 
	C314.791016,228.249741 315.593048,228.499252 316.833862,229.201233 
	C319.125122,232.131256 320.977600,234.608826 322.830048,237.086395 
	C322.741913,240.518936 322.653778,243.951477 322.294678,247.683060 
	C319.381378,241.559235 316.739075,235.136368 314.042847,228.356842 
z"/>
<path fill="#33466E" opacity="1.000000" stroke="none" 
	d="
M275.593781,202.939911 
	C274.851257,203.259308 273.675232,203.600388 272.125153,204.043488 
	C265.091919,205.740601 258.432709,207.335678 251.387009,208.922424 
	C252.518982,207.771301 254.037430,206.628479 255.778061,205.231201 
	C257.752319,204.645248 259.504395,204.313751 261.960571,203.932999 
	C263.437592,203.585388 264.210449,203.287033 264.983337,202.988693 
	C265.746796,202.979080 266.510254,202.969467 267.976227,202.964417 
	C269.107422,202.952866 269.536102,202.936752 269.964783,202.920654 
	C271.696594,202.934296 273.428436,202.947952 275.593781,202.939911 
z"/>
<path fill="#FAFAF6" opacity="1.000000" stroke="none" 
	d="
M237.996277,215.983734 
	C238.468597,215.661331 238.940918,215.338928 239.707428,215.059631 
	C241.827332,219.387909 240.916183,222.287445 237.060364,223.831345 
	C236.609726,224.011810 235.698029,223.040787 234.993256,221.958527 
	C234.987915,220.879150 234.989395,220.444839 235.201874,219.894958 
	C235.677567,219.583466 235.870560,219.332397 236.241913,219.018356 
	C236.658737,219.006912 236.825485,219.003342 237.275024,218.964874 
	C237.721008,218.296204 237.884216,217.662430 238.037079,216.767319 
	C238.016602,216.331894 238.006439,216.157822 237.996277,215.983734 
z"/>
<path fill="#EBF4F9" opacity="1.000000" stroke="none" 
	d="
M201.102783,270.870972 
	C202.236557,266.259857 203.744583,261.626373 205.522247,256.724457 
	C207.257111,262.124023 204.592667,266.553925 201.102783,270.870972 
z"/>
<path fill="#EBF3F7" opacity="1.000000" stroke="none" 
	d="
M62.093697,213.934738 
	C64.854973,211.942459 68.050301,209.971970 71.604675,207.976044 
	C72.386093,211.437775 71.083267,213.214005 67.328644,213.080994 
	C65.740677,213.024765 64.128769,213.644196 62.093697,213.934738 
z"/>
<path fill="#EBF4F9" opacity="1.000000" stroke="none" 
	d="
M206.284607,255.955322 
	C207.373077,252.774750 208.823486,249.554413 210.543503,246.133484 
	C211.780777,250.244003 210.585754,253.652451 206.284607,255.955322 
z"/>
<path fill="#FCF6D5" opacity="1.000000" stroke="none" 
	d="
M198.209793,285.730652 
	C197.821762,285.273499 197.804688,284.881927 197.909912,284.218201 
	C201.850189,284.120392 205.668182,284.294708 209.742432,284.751038 
	C206.192703,285.287415 202.386734,285.541779 198.209793,285.730652 
z"/>
<path fill="#DFEBF5" opacity="1.000000" stroke="none" 
	d="
M145.728699,237.356262 
	C145.791321,237.740417 145.862808,238.101883 145.948486,238.740417 
	C142.932327,237.773010 139.585373,236.810379 140.136963,232.012299 
	C140.500748,231.721970 140.815903,231.839233 141.476273,232.359833 
	C142.812561,233.911316 143.803619,235.059448 144.794693,236.207581 
	C144.794693,236.207581 144.866852,236.117874 144.866135,236.401794 
	C145.167572,236.890152 145.469727,237.094574 145.771881,237.299011 
	C145.771881,237.299011 145.737549,237.333572 145.728699,237.356262 
z"/>
<path fill="#476192" opacity="1.000000" stroke="none" 
	d="
M131.744675,222.369507 
	C136.125595,221.940399 138.567337,224.043869 138.928024,228.880066 
	C137.435852,227.964752 135.970261,226.655151 134.125885,224.918335 
	C133.143234,224.046234 132.539368,223.601364 131.935516,223.156479 
	C131.889648,222.982407 131.843781,222.808334 131.744675,222.369507 
z"/>
<path fill="#E5EEF0" opacity="1.000000" stroke="none" 
	d="
M278.196655,254.091583 
	C279.692505,252.665253 281.509338,251.397720 283.637756,250.005951 
	C283.920807,256.337677 283.664093,256.544128 278.196655,254.091583 
z"/>
<path fill="#EBF4F9" opacity="1.000000" stroke="none" 
	d="
M213.939819,240.918579 
	C214.136444,239.992371 214.691559,239.108261 215.530746,238.084839 
	C216.841080,238.922104 217.867325,239.898697 218.893570,240.875290 
	C218.554871,241.246231 218.216156,241.617188 217.877441,241.988129 
	C216.684387,241.645645 215.491348,241.303162 213.939819,240.918579 
z"/>
<path fill="#EBF3F7" opacity="1.000000" stroke="none" 
	d="
M55.048458,219.886169 
	C56.481071,218.117081 58.306725,216.383545 60.465820,214.556107 
	C60.680920,217.918549 58.779163,219.624710 55.048458,219.886169 
z"/>
<path fill="#DFEBF5" opacity="1.000000" stroke="none" 
	d="
M151.055466,248.073883 
	C151.879822,248.725357 152.412216,249.569580 152.943573,250.719055 
	C152.216202,250.105087 151.489853,249.185883 151.055466,248.073883 
z"/>
<path fill="#253758" opacity="1.000000" stroke="none" 
	d="
M322.979645,254.447693 
	C323.260315,256.135101 323.462738,258.251282 323.443237,260.660767 
	C323.114685,258.928192 323.008057,256.902313 322.979645,254.447693 
z"/>
<path fill="#FCF6D5" opacity="1.000000" stroke="none" 
	d="
M162.514740,283.964294 
	C162.997894,284.158020 163.104584,284.358215 163.196991,284.900635 
	C161.666992,285.243713 160.151245,285.244537 158.329407,285.108582 
	C159.394958,284.638153 160.766617,284.304443 162.514740,283.964294 
z"/>
<path fill="#EBF3F7" opacity="1.000000" stroke="none" 
	d="
M78.823524,205.874802 
	C79.640671,205.433990 80.837097,205.071381 82.408272,204.712494 
	C81.589615,205.128494 80.396210,205.540756 78.823524,205.874802 
z"/>
<path fill="#EBF3F7" opacity="1.000000" stroke="none" 
	d="
M90.413879,204.606812 
	C92.003571,204.392914 93.935760,204.379318 96.222656,204.600647 
	C94.637039,204.826096 92.696709,204.816605 90.413879,204.606812 
z"/>
<path fill="#DFEBF5" opacity="1.000000" stroke="none" 
	d="
M147.984283,242.385284 
	C148.713516,243.079208 149.431396,244.157181 150.193436,245.563751 
	C149.482712,244.851349 148.727814,243.810333 147.984283,242.385284 
z"/>
<path fill="#E5EEF6" opacity="1.000000" stroke="none" 
	d="
M234.990875,220.010513 
	C234.989395,220.444839 234.987915,220.879150 234.986603,221.638458 
	C234.144958,221.647125 233.303162,221.330826 232.126312,220.957489 
	C232.313675,220.314056 232.836060,219.727646 233.729156,219.106354 
	C234.099854,219.071457 234.287170,219.220322 234.337372,219.399719 
	C234.541061,219.789368 234.742172,219.933167 234.990875,220.010513 
z"/>
<path fill="#EBF3F7" opacity="1.000000" stroke="none" 
	d="
M75.067200,206.914551 
	C75.564079,206.539703 76.432732,206.210251 77.660164,205.888763 
	C77.158951,206.251129 76.298958,206.605530 75.067200,206.914551 
z"/>
<path fill="#DFEBF5" opacity="1.000000" stroke="none" 
	d="
M131.986282,223.459839 
	C132.539368,223.601364 133.143234,224.046234 133.840836,224.761185 
	C133.302063,224.608566 132.669556,224.185883 131.986282,223.459839 
z"/>
<path fill="#E5EEF6" opacity="1.000000" stroke="none" 
	d="
M228.326294,223.983322 
	C228.513123,223.468399 228.998596,222.923431 229.761353,222.319763 
	C229.567413,222.825119 229.096176,223.389191 228.326294,223.983322 
z"/>
<path fill="#E5EEF6" opacity="1.000000" stroke="none" 
	d="
M219.973480,232.789764 
	C219.952911,232.367798 220.226303,231.852509 220.770370,231.217590 
	C220.783188,231.630783 220.525314,232.163605 219.973480,232.789764 
z"/>
<path fill="#EBF3F7" opacity="1.000000" stroke="none" 
	d="
M72.247971,207.963562 
	C72.434723,207.656662 72.916817,207.354401 73.695953,207.067688 
	C73.509773,207.378250 73.026550,207.673233 72.247971,207.963562 
z"/>
<path fill="#DFEBF5" opacity="1.000000" stroke="none" 
	d="
M129.181427,221.051834 
	C129.476562,220.905701 129.871140,221.033157 130.567429,221.245911 
	C130.869156,221.331207 130.870956,221.707611 130.827347,221.890686 
	C130.282776,221.824326 129.781815,221.574875 129.181427,221.051834 
z"/>
<path fill="#EBF3F7" opacity="1.000000" stroke="none" 
	d="
M82.999496,204.801880 
	C82.918488,204.428009 83.161400,204.271317 83.733444,204.371338 
	C83.760117,204.690857 83.513733,204.821198 82.999496,204.801880 
z"/>
<path fill="#EBF4F9" opacity="1.000000" stroke="none" 
	d="
M200.214981,273.926636 
	C200.031296,273.826874 200.004715,273.651886 200.103516,273.242828 
	C200.343109,273.195709 200.479599,273.373993 200.557724,273.574921 
	C200.580719,273.634125 200.438568,273.757477 200.214981,273.926636 
z"/>
<path fill="#DFEBF5" opacity="1.000000" stroke="none" 
	d="
M153.648224,253.134003 
	C153.883194,253.144196 153.996277,253.290558 154.119186,253.714249 
	C153.928101,253.751129 153.727203,253.510651 153.648224,253.134003 
z"/>
<path fill="#E5EEF6" opacity="1.000000" stroke="none" 
	d="
M223.229126,228.894257 
	C223.162674,228.704880 223.323654,228.408691 223.734818,228.033493 
	C223.808838,228.232147 223.632706,228.509796 223.229126,228.894257 
z"/>
<path fill="#476192" opacity="1.000000" stroke="none" 
	d="
M139.738617,230.379181 
	C139.921036,230.283920 140.211792,230.452438 140.412231,230.789841 
	C140.163605,230.853470 140.005280,230.748215 139.738617,230.379181 
z"/>
<path fill="#2D5498" opacity="1.000000" stroke="none" 
	d="
M42.695580,229.991776 
	C43.195660,233.290039 42.394886,235.985336 38.400162,237.007202 
	C38.011082,236.307541 37.978600,235.541733 38.286873,234.335052 
	C38.449066,232.936752 38.270500,231.979309 38.091934,231.021881 
	C38.215229,228.543533 38.338520,226.065201 38.729843,223.292816 
	C41.505459,224.039764 42.938438,225.479736 41.234295,228.349472 
	C41.093384,228.586777 41.970730,229.428772 42.695580,229.991776 
z"/>
<path fill="#2D5498" opacity="1.000000" stroke="none" 
	d="
M44.004471,181.396484 
	C44.830536,182.081863 46.469288,183.401184 46.248882,184.220200 
	C45.011272,188.819092 43.325684,193.297440 41.437958,197.912537 
	C42.041523,192.605225 43.000107,187.202301 44.004471,181.396484 
z"/>
<path fill="#2D5498" opacity="1.000000" stroke="none" 
	d="
M51.639858,149.106430 
	C52.018551,155.711761 50.060894,161.957214 46.429138,167.922592 
	C47.835926,161.771652 49.584866,155.536636 51.639858,149.106430 
z"/>
<path fill="#2D5498" opacity="1.000000" stroke="none" 
	d="
M39.988922,209.306244 
	C42.987858,209.866653 42.031567,211.251312 40.232925,212.863556 
	C39.929462,211.886932 39.929096,210.753403 39.988922,209.306244 
z"/>
<path fill="#2D5498" opacity="1.000000" stroke="none" 
	d="
M39.618469,217.211182 
	C39.796574,218.254211 39.736683,219.560699 39.337471,220.933640 
	C39.125595,219.824936 39.253036,218.649796 39.618469,217.211182 
z"/>
<path fill="#2D5498" opacity="1.000000" stroke="none" 
	d="
M52.768150,143.220428 
	C52.909401,143.971786 52.793205,144.933426 52.366817,145.952393 
	C52.207985,145.150055 52.359341,144.290375 52.768150,143.220428 
z"/>
<path fill="#2C57A5" opacity="1.000000" stroke="none" 
	d="
M38.056511,231.394104 
	C38.270500,231.979309 38.449066,232.936752 38.300694,233.953033 
	C37.989536,233.263367 38.005314,232.514847 38.056511,231.394104 
z"/>
<path fill="#2D5498" opacity="1.000000" stroke="none" 
	d="
M40.760178,202.222473 
	C40.931072,202.963776 40.852867,203.923981 40.478928,204.951721 
	C40.292488,204.159973 40.401783,203.300674 40.760178,202.222473 
z"/>
<path fill="#2D5499" opacity="1.000000" stroke="none" 
	d="
M316.854065,182.621246 
	C315.454926,181.745651 313.037567,180.628342 312.814392,179.174271 
	C311.715393,172.014267 311.198395,164.764938 310.755310,157.266068 
	C312.972229,165.398102 314.909790,173.811188 316.854065,182.621246 
z"/>
<path fill="#2D5499" opacity="1.000000" stroke="none" 
	d="
M302.927795,130.646912 
	C297.105988,127.609344 294.276001,122.441269 294.038391,115.339493 
	C296.993317,120.043175 299.943817,125.165398 302.927795,130.646912 
z"/>
<path fill="#2D5499" opacity="1.000000" stroke="none" 
	d="
M321.895142,225.570419 
	C320.943512,224.949585 319.325531,223.928452 319.254791,222.809479 
	C318.989044,218.607590 319.228210,214.373779 319.625610,210.073364 
	C320.628387,215.038254 321.283783,220.081726 321.895142,225.570419 
z"/>
<path fill="#2D5499" opacity="1.000000" stroke="none" 
	d="
M322.875000,236.678101 
	C320.977600,234.608826 319.125122,232.131256 317.125488,229.332413 
	C318.358978,229.005188 319.739624,228.999207 321.531433,228.989853 
	C322.268433,231.414246 322.594208,233.842026 322.875000,236.678101 
z"/>
<path fill="#2D5499" opacity="1.000000" stroke="none" 
	d="
M318.896942,196.612579 
	C314.079193,195.320374 316.307343,191.644577 316.753784,188.268890 
	C317.664215,190.727783 318.296753,193.467545 318.896942,196.612579 
z"/>
<path fill="#2D5499" opacity="1.000000" stroke="none" 
	d="
M319.963287,207.581680 
	C314.631805,206.460266 318.907349,203.023605 318.723450,200.261124 
	C319.316345,202.388809 319.651245,204.770660 319.963287,207.581680 
z"/>
<path fill="#2D5499" opacity="1.000000" stroke="none" 
	d="
M308.991608,148.632507 
	C308.178711,147.148926 307.358643,145.296494 306.776978,143.218719 
	C307.671722,144.750122 308.328064,146.506897 308.991608,148.632507 
z"/>
<path fill="#2D5499" opacity="1.000000" stroke="none" 
	d="
M284.855225,101.703163 
	C283.671387,100.891357 282.351349,99.780067 281.043457,98.283646 
	C282.276733,99.066895 283.497864,100.235283 284.855225,101.703163 
z"/>
<path fill="#2D5499" opacity="1.000000" stroke="none" 
	d="
M287.965515,105.661835 
	C287.036804,105.190994 286.065308,104.386169 285.080322,103.229172 
	C286.018799,103.693954 286.970795,104.510895 287.965515,105.661835 
z"/>
<path fill="#2D5499" opacity="1.000000" stroke="none" 
	d="
M306.864868,140.700348 
	C306.286865,140.508377 305.696991,140.001114 305.099762,139.165985 
	C305.679291,139.353775 306.266144,139.869415 306.864868,140.700348 
z"/>
<path fill="#2D5499" opacity="1.000000" stroke="none" 
	d="
M291.915100,110.689423 
	C291.332428,110.524910 290.716705,110.045158 290.073303,109.242516 
	C290.657776,109.404472 291.269897,109.889328 291.915100,110.689423 
z"/>
<path fill="#476192" opacity="1.000000" stroke="none" 
	d="
M144.859192,235.815826 
	C143.803619,235.059448 142.812561,233.911316 141.715759,232.447678 
	C142.714569,233.229477 143.819122,234.326782 144.859192,235.815826 
z"/>
<path fill="#446093" opacity="1.000000" stroke="none" 
	d="
M264.784424,202.753082 
	C264.210449,203.287033 263.437592,203.585388 262.336609,203.851715 
	C262.867523,203.385635 263.726501,202.951553 264.784424,202.753082 
z"/>
<path fill="#446093" opacity="1.000000" stroke="none" 
	d="
M269.815643,202.722519 
	C269.536102,202.936752 269.107422,202.952866 268.357788,202.951340 
	C268.580048,202.797287 269.123260,202.660843 269.815643,202.722519 
z"/>
<path fill="#2D5499" opacity="1.000000" stroke="none" 
	d="
M307.976135,217.708496 
	C307.681580,217.535934 307.359619,217.066238 307.004639,216.301682 
	C307.297302,216.475006 307.622986,216.943176 307.976135,217.708496 
z"/>
<path fill="#476192" opacity="1.000000" stroke="none" 
	d="
M145.722595,237.017929 
	C145.469727,237.094574 145.167572,236.890152 144.809204,236.410278 
	C145.059769,236.335526 145.366547,236.536194 145.722595,237.017929 
z"/>
<path fill="#2D5499" opacity="1.000000" stroke="none" 
	d="
M312.882416,222.798798 
	C312.680542,222.896210 312.423218,222.700378 312.105530,222.215088 
	C312.308655,222.113098 312.569244,222.306396 312.882416,222.798798 
z"/>
<path fill="#2D5499" opacity="1.000000" stroke="none" 
	d="
M314.164337,224.925018 
	C314.003479,224.856720 313.995117,224.686340 313.981689,224.260132 
	C314.090027,224.277176 314.203400,224.550049 314.164337,224.925018 
z"/>
<path fill="#03263A" opacity="1.000000" stroke="none" 
	d="
M85.682137,269.877136 
	C85.309921,266.586212 84.769203,263.560486 85.158752,260.659698 
	C85.777611,256.051361 94.999184,250.150711 99.574760,251.437973 
	C102.489906,252.258102 106.240250,250.967148 108.003067,255.292145 
	C110.688828,261.881470 112.401436,268.547089 107.447960,274.316772 
	C105.662109,276.396851 101.244659,276.643677 97.965889,276.886444 
	C95.145096,277.095306 90.817833,278.635986 91.011734,272.697327 
	C91.037094,271.920471 87.706924,271.034027 85.682137,269.877136 
z"/>
<path fill="#E5EEF6" opacity="1.000000" stroke="none" 
	d="
M236.992249,218.999771 
	C236.825485,219.003342 236.658737,219.006912 235.954102,219.024261 
	C235.039871,219.098785 234.663513,219.159546 234.287170,219.220322 
	C234.287170,219.220322 234.099854,219.071457 234.007050,218.995880 
	C234.655548,218.245590 235.396851,217.570862 236.539276,216.917542 
	C236.940384,216.938965 237.152985,217.151505 237.101990,217.456467 
	C237.031403,218.174210 237.011826,218.586990 236.992249,218.999771 
z"/>
<path fill="#E5EEF6" opacity="1.000000" stroke="none" 
	d="
M237.742615,216.023605 
	C238.006439,216.157822 238.016602,216.331894 237.811783,216.787262 
	C237.596817,217.068558 237.152985,217.151505 237.152985,217.151505 
	C237.152985,217.151505 236.940384,216.938965 236.832916,216.831329 
	C236.979935,216.503616 237.234451,216.283539 237.742615,216.023605 
z"/>
<path fill="#FDFDFD" opacity="1.000000" stroke="none" 
	d="
M237.101990,217.456467 
	C237.152985,217.151505 237.596817,217.068558 237.822113,217.048615 
	C237.884216,217.662430 237.721008,218.296204 237.275024,218.964874 
	C237.011826,218.586990 237.031403,218.174210 237.101990,217.456467 
z"/>
<path fill="#FDFDFD" opacity="1.000000" stroke="none" 
	d="
M234.337372,219.399719 
	C234.663513,219.159546 235.039871,219.098785 235.704041,219.032135 
	C235.870560,219.332397 235.677567,219.583466 235.201874,219.894958 
	C234.742172,219.933167 234.541061,219.789368 234.337372,219.399719 
z"/>
</svg>